<?xml version="1.0" standalone="no"?>
<!DOCTYPE svg PUBLIC "-//W3C//DTD SVG 1.1//EN" "http://www.w3.org/Graphics/SVG/1.1/DTD/svg11.dtd" >
<svg xmlns="http://www.w3.org/2000/svg">
<metadata></metadata>
<defs>
<font id="foundation_sans_cdregular" horiz-adv-x="915" >
<font-face units-per-em="2048" ascent="1690" descent="-358" />
<missing-glyph horiz-adv-x="382" />
<glyph unicode="&#xfb01;" horiz-adv-x="841" d="M31 897v113h135v116q0 132 54.5 186t189.5 54h51v-127h-33q-68 0 -91.5 -24.5t-23.5 -96.5v-108h148v-113h-148v-897h-147v897h-135zM584 0v1010h147v-1010h-147zM584 1182v184h147v-184h-147z" />
<glyph unicode="&#xfb02;" horiz-adv-x="841" d="M31 897v113h135v116q0 132 54.5 186t189.5 54h51v-127h-33q-68 0 -91.5 -24.5t-23.5 -96.5v-108h148v-113h-148v-897h-147v897h-135zM584 0v1366h147v-1366h-147z" />
<glyph unicode="&#xfb03;" horiz-adv-x="1259" d="M31 897v113h135v116q0 132 54.5 186t189.5 54h51v-127h-33q-68 0 -91.5 -24.5t-23.5 -96.5v-108h271v116q0 132 54 186t189 54h52v-127h-33q-68 0 -91.5 -24.5t-23.5 -96.5v-108h148v-113h-148v-897h-147v897h-271v-897h-147v897h-135zM1001 0v1010h148v-1010h-148z M1001 1182v184h148v-184h-148z" />
<glyph unicode="&#xfb04;" horiz-adv-x="1259" d="M31 897v113h135v116q0 132 54.5 186t189.5 54h51v-127h-33q-68 0 -91.5 -24.5t-23.5 -96.5v-108h271v116q0 132 54 186t189 54h52v-127h-33q-68 0 -91.5 -24.5t-23.5 -96.5v-108h148v-113h-148v-897h-147v897h-271v-897h-147v897h-135zM1001 0v1366h148v-1366h-148z" />
<glyph horiz-adv-x="2048" />
<glyph horiz-adv-x="2048" />
<glyph unicode="&#xd;" horiz-adv-x="2048" />
<glyph unicode=" "  horiz-adv-x="382" />
<glyph unicode="&#x09;" horiz-adv-x="382" />
<glyph unicode="&#xa0;" horiz-adv-x="382" />
<glyph unicode="!" horiz-adv-x="395" d="M109 0v190h178v-190h-178zM115 946v406h166v-406l-43 -618h-80z" />
<glyph unicode="&#x22;" horiz-adv-x="579" d="M86 1366h162l-25 -492h-114zM334 1366h160l-23 -492h-115z" />
<glyph unicode="#" d="M76 426l14 102h133l49 308h-133l15 102h131l61 399h121l-64 -399h189l61 399h121l-63 -399h129l-15 -102h-127l-49 -308h129l-14 -102h-131l-64 -426h-125l68 426h-186l-66 -426h-117l66 426h-133zM344 528h186l45 308h-186z" />
<glyph unicode="$" d="M47 395v27h164q-2 -16 -2 -41q0 -129 48 -193t155 -79v512l-50 18q-161 60 -224.5 137.5t-63.5 214.5q0 158 90.5 256.5t247.5 110.5v172h88v-172q326 -34 329 -379h-155q-2 114 -44 175.5t-130 74.5v-473l94 -33q145 -49 207 -135q63 -86 63 -226q0 -171 -93.5 -269 t-270.5 -111v-172h-88v172q-365 30 -365 413zM219 1016q0 -90 44 -145.5t140 -79.5l9 -3v443q-193 -27 -193 -215zM500 109q106 12 156.5 70.5t50.5 170.5q0 98 -40 145.5t-157 90.5l-10 2v-479z" />
<glyph unicode="%" horiz-adv-x="1460" d="M68 942q0 241 53 328q63 110 190 110q66 0 118 -34t81 -97q43 -90 43 -311q0 -234 -53 -324q-63 -110 -189 -110q-67 0 -119 34t-81 97q-43 87 -43 307zM188 942q0 -186 28 -263t95 -77t95 76.5t28 259.5q0 203 -26 268q-13 35 -39.5 55.5t-57.5 20.5q-67 0 -95 -77 t-28 -263zM309 0l735 1352h105l-733 -1352h-107zM907 420q0 236 54 328q63 110 190 110q66 0 118 -34t81 -97q43 -90 43 -313q0 -227 -54 -324q-63 -110 -188 -110q-67 0 -119.5 34t-81.5 97q-43 87 -43 309zM1028 420q0 -196 27 -264q13 -35 39 -55.5t57 -20.5 q67 0 95 76.5t28 259.5q0 198 -27 266q-15 36 -40.5 56t-55.5 20q-68 0 -95.5 -76t-27.5 -262z" />
<glyph unicode="&#x26;" horiz-adv-x="1099" d="M90 369q0 69 20.5 128t62 110t80 86t99.5 81q-72 101 -100.5 169.5t-28.5 139.5q0 118 78.5 193.5t200.5 75.5q117 0 189.5 -73.5t72.5 -191.5q0 -98 -46 -170.5t-173 -173.5l260 -372q42 85 45 254h139q-1 -99 -28 -200.5t-70 -172.5l176 -252h-166l-96 133 q-77 -82 -153.5 -117.5t-172.5 -35.5q-167 0 -278 111t-111 278zM238 383q0 -118 75 -197.5t185 -79.5q70 0 125 32t108 102l-305 428q-106 -77 -147 -138.5t-41 -146.5zM365 1092q0 -50 21 -98t85 -144q85 66 118.5 117t33.5 114q0 65 -36 105.5t-93 40.5 q-56 0 -92.5 -38.5t-36.5 -96.5z" />
<glyph unicode="'" horiz-adv-x="333" d="M86 1366h162l-25 -492h-114z" />
<glyph unicode="(" horiz-adv-x="561" d="M102 535q0 223 60.5 419.5t195.5 411.5h111q-209 -331 -209 -825q0 -271 54 -469t182 -400h-109q-162 248 -223.5 434.5t-61.5 428.5z" />
<glyph unicode=")" horiz-adv-x="561" d="M66 1366h108q162 -248 223.5 -434t61.5 -428q0 -223 -60.5 -420t-195.5 -412h-111q209 331 209 826q0 271 -53.5 469t-181.5 399z" />
<glyph unicode="*" horiz-adv-x="747" d="M90 1122l33 99l207 -74l-8 219h104l-6 -219l207 74l30 -99l-211 -61l136 -174l-84 -62l-123 183l-125 -183l-84 62l135 174z" />
<glyph unicode="+" d="M84 631v108h317v324h113v-324h317v-108h-317v-330h-113v330h-317z" />
<glyph unicode="," horiz-adv-x="393" d="M102 0v199h189v-185q0 -123 -46 -195.5t-143 -101.5v101q46 22 66 65t18 117h-84z" />
<glyph unicode="-" horiz-adv-x="382" d="M0 461v143h383v-143h-383z" />
<glyph unicode="." horiz-adv-x="393" d="M102 0v199h189v-199h-189z" />
<glyph unicode="/" horiz-adv-x="618" d="M-23 -328l455 1694h121l-455 -1694h-121z" />
<glyph unicode="0" d="M84 670q0 367 82 516q46 85 121 129.5t172 44.5q104 0 183.5 -52.5t123.5 -152.5q65 -142 65 -493q0 -358 -81 -508q-95 -174 -291 -174q-215 0 -309 204q-66 147 -66 486zM242 670q0 -325 47 -437q56 -127 170 -127q125 0 176 150q39 112 39 408q0 330 -47 442 q-53 127 -168 127q-127 0 -178 -150q-39 -112 -39 -413z" />
<glyph unicode="1" d="M176 989v117q23 -2 55 -2q126 0 186.5 59.5t63.5 188.5h135v-1352h-157v989h-283z" />
<glyph unicode="2" d="M90 0v18q0 133 30.5 225.5t98 173t197.5 183.5q142 115 187.5 189t45.5 190q0 117 -53.5 180.5t-151.5 63.5q-149 0 -194 -146q-12 -38 -14 -182h-146v47q0 201 94 309.5t269 108.5q164 0 259 -103.5t95 -283.5q0 -139 -57 -235t-222 -230q-150 -122 -210 -200.5 t-72 -170.5h575v-137h-731z" />
<glyph unicode="3" d="M84 399h152q-3 -21 -3 -32q0 -120 60.5 -190.5t163.5 -70.5q104 0 166.5 76t62.5 205q0 67 -22 124t-60 89q-56 45 -184 45q-37 0 -62 -2v125q18 -2 52 -2q120 0 173.5 56.5t53.5 181.5q0 229 -191 229q-103 0 -146 -62.5t-46 -214.5h-148q5 166 50 248q40 75 117 115.5 t180 40.5q160 0 251 -91.5t91 -252.5q0 -117 -49 -191t-150 -112q129 -25 188.5 -101.5t59.5 -218.5q0 -192 -103 -302.5t-282 -110.5q-183 0 -278 106.5t-97 312.5z" />
<glyph unicode="4" d="M82 342v137l489 873h154v-873h131v-137h-131v-342h-147v342h-496zM219 479h359v637z" />
<glyph unicode="5" d="M84 362h152q2 -125 53.5 -190.5t148.5 -65.5q109 0 170.5 92.5t61.5 256.5q0 150 -59 228.5t-173 78.5q-144 0 -182 -129l-143 14l80 690h587v-137h-461l-49 -387q98 76 209 76q161 0 254.5 -116t93.5 -316q0 -220 -104.5 -348.5t-282.5 -128.5q-101 0 -181 43t-126 122 q-46 77 -49 217z" />
<glyph unicode="6" d="M84 655q0 396 113 557q103 148 284 148q145 0 226.5 -83t91.5 -243h-146q-9 106 -49.5 152.5t-122.5 46.5q-125 0 -185 -124t-67 -398q58 83 121 119t148 36q155 0 247.5 -115.5t92.5 -310.5q0 -209 -101 -334.5t-270 -125.5q-111 0 -192.5 55t-127.5 160 q-63 144 -63 460zM246 426q0 -152 58.5 -240t158.5 -88q98 0 157.5 87t59.5 233q0 152 -57.5 241t-155.5 89q-101 0 -161 -87t-60 -235z" />
<glyph unicode="7" d="M80 1200v137h756v-137q-201 -288 -319 -606.5t-124 -593.5h-172q28 303 139.5 595t317.5 605h-598z" />
<glyph unicode="8" d="M88 383q0 266 211 354q-89 40 -130.5 109t-41.5 176q0 156 89.5 247t242.5 91q152 0 240.5 -91.5t88.5 -248.5q0 -106 -41.5 -174.5t-130.5 -108.5q211 -88 211 -354q0 -187 -99 -295t-269 -108q-172 0 -271.5 108t-99.5 295zM246 387q0 -135 55 -208t158 -73 q100 0 155.5 72.5t55.5 202.5q0 138 -55 211.5t-158 73.5q-101 0 -156 -72.5t-55 -206.5zM272 1012q0 -103 49.5 -162t137.5 -59q85 0 134.5 59t49.5 160q0 104 -49 163.5t-137 59.5q-86 0 -135.5 -59t-49.5 -162z" />
<glyph unicode="9" d="M74 897q0 211 101 337t271 126q111 0 192.5 -55t127.5 -160q61 -136 61 -463q0 -398 -112 -555q-102 -147 -285 -147q-145 0 -226 82.5t-91 240.5h145q9 -104 49.5 -150.5t120.5 -46.5q73 0 127 46.5t82 132.5q40 123 45 344q-60 -86 -120 -121t-146 -35 q-157 0 -249.5 115t-92.5 309zM231 922q0 -152 57.5 -241t155.5 -89q101 0 161.5 87t60.5 234q0 152 -58.5 240t-158.5 88q-99 0 -158.5 -86.5t-59.5 -232.5z" />
<glyph unicode=":" horiz-adv-x="393" d="M102 0v199h189v-199h-189zM102 811v199h189v-199h-189z" />
<glyph unicode=";" horiz-adv-x="393" d="M102 0v199h189v-185q0 -123 -46 -195.5t-143 -101.5v101q46 22 66 65t18 117h-84zM102 811v199h189v-199h-189z" />
<glyph unicode="&#x3c;" horiz-adv-x="1024" d="M68 627v127l886 413v-145l-729 -332l729 -334v-145z" />
<glyph unicode="=" d="M84 459v108h747v-108h-747zM84 799v108h747v-108h-747z" />
<glyph unicode="&#x3e;" horiz-adv-x="1024" d="M70 211v145l729 334l-729 332v145l886 -415v-127z" />
<glyph unicode="?" horiz-adv-x="825" d="M66 952q3 174 51 265q91 163 299 163q157 0 250.5 -97t93.5 -261q0 -95 -32.5 -163.5t-135.5 -188.5q-80 -94 -99.5 -135t-19.5 -117q0 -45 2 -84h-149q-2 29 -2 57q0 113 28 178t131 189q72 86 95.5 137t23.5 121q0 105 -50.5 166t-137.5 61q-128 0 -176 -123 q-19 -56 -19 -168h-153zM311 0v190h178v-190h-178z" />
<glyph unicode="@" horiz-adv-x="1320" d="M86 680q0 197 78.5 360.5t214.5 257t301 93.5q155 0 282.5 -79.5t200 -218.5t72.5 -309q0 -128 -43.5 -242t-115.5 -181.5t-154 -67.5q-97 0 -127 115q-37 -58 -88 -90.5t-107 -32.5q-103 0 -170.5 94t-67.5 239q0 173 91 297.5t217 124.5q60 0 99 -29t71 -98l18 103h125 l-84 -438q-12 -74 -12 -95q0 -37 11.5 -59.5t31.5 -22.5q47 0 91 54t70.5 142.5t26.5 182.5q0 215 -123.5 355.5t-312.5 140.5q-131 0 -239.5 -78.5t-171 -215.5t-62.5 -302q0 -241 129 -418q124 -170 354 -170q188 0 357 98l34 -114q-186 -101 -391 -101q-276 0 -436 201 q-82 101 -126 232t-44 272zM500 623q0 -95 34 -154t89 -59q71 0 120.5 90.5t49.5 220.5q0 88 -29 137.5t-82 52.5q-71 3 -126.5 -84.5t-55.5 -203.5z" />
<glyph unicode="A" horiz-adv-x="1028" d="M10 0l393 1366h207l406 -1366h-174l-113 391h-446l-107 -391h-166zM322 528h370l-119 422q-21 77 -67 262q-32 -139 -68 -262z" />
<glyph unicode="B" horiz-adv-x="1009" d="M127 0v1366h369q112 0 174.5 -16t107.5 -54q109 -92 109 -278q0 -113 -39.5 -180t-128.5 -107q107 -34 158 -115.5t51 -218.5q0 -198 -111 -303q-54 -52 -128 -73t-202 -21h-360zM289 129h211q137 0 201.5 63.5t64.5 198.5t-64.5 198.5t-201.5 63.5h-211v-524zM289 776 h207q117 0 168 51q61 61 61 181q0 117 -61 178q-51 51 -172 51h-203v-461z" />
<glyph unicode="C" horiz-adv-x="985" d="M88 696q0 399 125 553q115 142 313 142q173 0 273.5 -111.5t111.5 -314.5h-157q-7 147 -66.5 222t-167.5 75q-140 0 -205 -127.5t-65 -401.5q0 -338 62.5 -483.5t207.5 -145.5q242 0 248 392h158q-21 -521 -408 -521q-223 0 -326.5 174t-103.5 547z" />
<glyph unicode="D" horiz-adv-x="1050" d="M127 0v1366h340q166 0 248 -30t137 -111q53 -80 82 -219.5t29 -315.5q0 -207 -40.5 -358.5t-117.5 -229.5q-56 -56 -131.5 -79t-202.5 -23h-344zM289 129h141q129 0 190 22.5t99 84.5q37 61 59.5 185.5t22.5 264.5q0 157 -26.5 285.5t-69.5 185.5q-35 44 -86 62t-142 18 h-188v-1108z" />
<glyph unicode="E" horiz-adv-x="958" d="M127 0v1366h731v-143h-569v-439h547v-137h-547v-504h590v-143h-752z" />
<glyph unicode="F" horiz-adv-x="868" d="M106 0v1366h719v-143h-557v-465h516v-144h-516v-614h-162z" />
<glyph unicode="G" horiz-adv-x="1038" d="M90 698q0 378 109 531q116 162 342 162q186 0 285 -108t106 -322h-160q-9 299 -237 299q-164 0 -232 -164q-51 -117 -51 -406q0 -302 67.5 -439.5t215.5 -137.5q167 0 227 182q26 89 29 274h-289v138h438v-707h-121q-8 78 -18 127q-62 -83 -125.5 -117.5t-157.5 -34.5 q-109 0 -196.5 51.5t-141.5 147.5q-90 161 -90 524z" />
<glyph unicode="H" horiz-adv-x="1062" d="M127 0v1366h162v-565h485v565h162v-1366h-162v664h-485v-664h-162z" />
<glyph unicode="I" horiz-adv-x="415" d="M127 0v1366h162v-1366h-162z" />
<glyph unicode="J" horiz-adv-x="776" d="M14 362q0 43 2 74h154q2 -124 3.5 -152.5t10.5 -58.5q30 -112 148 -112q41 0 75.5 17t51.5 46q30 53 30 193v997h162v-956q0 -142 -11 -205.5t-44 -112.5q-37 -54 -108.5 -85.5t-157.5 -31.5q-160 0 -238 95.5t-78 291.5z" />
<glyph unicode="K" horiz-adv-x="1032" d="M127 0v1366h162v-684l497 684h195l-438 -569l465 -797h-189l-379 664l-151 -197v-467h-162z" />
<glyph unicode="L" horiz-adv-x="888" d="M127 0v1366h162v-1223h561v-143h-723z" />
<glyph unicode="M" horiz-adv-x="1341" d="M127 0v1366h248q20 -72 112.5 -417t143.5 -529l31 -125l16 -76q24 133 65 287l226 860h245v-1366h-149v889q0 177 8 303q-8 -29 -31 -123q-58 -212 -170 -610.5t-129 -458.5h-139l-258 909q-12 42 -78 283q8 -211 8 -303v-889h-149z" />
<glyph unicode="N" horiz-adv-x="1062" d="M127 0v1366h211l356 -897q75 -190 101 -270q-9 175 -9 303v864h150v-1366h-205l-377 930q-36 87 -92 248q14 -154 14 -275v-903h-149z" />
<glyph unicode="O" horiz-adv-x="1044" d="M88 684q0 357 88 514q109 193 346 193q126 0 218 -57.5t143 -166.5q71 -154 71 -491q0 -354 -88 -508q-109 -193 -344 -193q-254 0 -362 226q-72 157 -72 483zM250 684q0 -306 63 -438.5t209 -132.5q143 0 207 132.5t64 432.5q0 310 -62.5 442.5t-208.5 132.5t-209 -132 t-63 -437z" />
<glyph unicode="P" horiz-adv-x="931" d="M127 0v1366h354q178 0 260 -68q63 -49 97 -134.5t34 -192.5q0 -192 -95 -295t-273 -103h-215v-573h-162zM289 711h188q120 0 177 62t57 194t-57 194t-177 62h-188v-512z" />
<glyph unicode="Q" horiz-adv-x="1044" d="M88 684q0 357 88 514q109 193 346 193q126 0 218 -57.5t143 -166.5q71 -151 71 -485q0 -348 -88 -514l146 -117l-84 -104l-146 116q-110 -88 -262 -88q-124 0 -216.5 57.5t-143.5 166.5q-72 160 -72 485zM250 682q0 -305 62.5 -437t207.5 -132q87 0 148 45l-136 110 l84 103l127 -103q50 139 50 412q0 307 -63 440t-208 133q-146 0 -209 -132.5t-63 -438.5z" />
<glyph unicode="R" horiz-adv-x="1024" d="M127 0v1366h383q106 0 173.5 -20t111.5 -66q94 -94 94 -268q0 -131 -52.5 -210t-164.5 -116q118 -25 165 -92t48 -215l2 -152q1 -89 16 -136.5t53 -90.5h-190q-36 97 -39 227l-2 127q-3 156 -55 210t-201 54h-180v-618h-162zM289 748h211q227 0 227 245q0 244 -227 244 h-211v-489z" />
<glyph unicode="S" horiz-adv-x="980" d="M68 428h165v-51q0 -273 254 -273q256 0 256 250q0 103 -40 152t-160 90l-154 53q-162 57 -227.5 139t-65.5 224q0 175 105 277t286 102q117 0 205 -45.5t131 -128.5q42 -77 45 -218h-159q-5 137 -60 200t-170 63q-109 0 -171 -60t-62 -164q0 -91 43 -143.5t147 -89.5 l191 -68q85 -31 134.5 -63t80.5 -76q63 -89 63 -231q0 -185 -111 -288.5t-309 -103.5q-213 0 -315 111t-102 342z" />
<glyph unicode="T" horiz-adv-x="870" d="M14 1229v137h844v-137h-340v-1229h-162v1229h-342z" />
<glyph unicode="U" horiz-adv-x="1040" d="M127 451v915h162v-930q0 -105 12.5 -160t44.5 -92q58 -71 174 -71t174 71q32 37 45 92t13 160v930h161v-915q0 -123 -17 -198t-58 -132q-50 -69 -133.5 -107.5t-184.5 -38.5t-184 38.5t-133 107.5q-41 57 -58.5 132t-17.5 198z" />
<glyph unicode="V" horiz-adv-x="999" d="M14 1366h181l239 -909q46 -184 64 -283q30 133 71 283l242 909h176l-391 -1366h-199z" />
<glyph unicode="W" horiz-adv-x="1449" d="M20 1366h166l172 -881q38 -187 50 -321q12 119 53 325l172 877h186l182 -852q37 -185 56 -350q26 243 47 350l160 852h166l-289 -1366h-176l-177 809q-33 150 -63 344q-12 -107 -59 -346l-160 -807h-195z" />
<glyph unicode="X" horiz-adv-x="991" d="M14 0l387 698l-368 668h186l277 -520l274 520h184l-368 -668l393 -698h-193l-290 559l-295 -559h-187z" />
<glyph unicode="Y" horiz-adv-x="919" d="M0 1366h180l193 -451q19 -44 29 -69t15 -38t9 -22q29 -69 33 -79q28 77 86 208l196 451h179l-388 -819v-547h-161v547z" />
<glyph unicode="Z" horiz-adv-x="948" d="M39 0v115l647 1108h-580v143h766v-139l-641 -1084h658v-143h-850z" />
<glyph unicode="[" horiz-adv-x="534" d="M123 -328v1694h326v-109h-179v-1476h179v-109h-326z" />
<glyph unicode="\" horiz-adv-x="618" d="M66 1366h120l455 -1694h-121z" />
<glyph unicode="]" horiz-adv-x="534" d="M86 -219h180v1476h-180v109h326v-1694h-326v109z" />
<glyph unicode="^" horiz-adv-x="1024" d="M53 750l363 620h194l363 -620h-160l-301 503l-299 -503h-160z" />
<glyph unicode="_" horiz-adv-x="1024" d="M0 -135h1024v-135h-1024v135z" />
<glyph unicode="`" horiz-adv-x="1024" d="M231 1366h224l118 -260h-118z" />
<glyph unicode="a" horiz-adv-x="860" d="M70 260q0 72 26.5 129.5t73.5 91.5q35 26 80.5 42.5t152.5 43.5q121 29 153 57t32 103q0 95 -42 138.5t-134 43.5q-96 0 -135 -41t-39 -137h-138q0 154 76.5 226.5t239.5 72.5q154 0 235 -72q39 -36 55.5 -88t16.5 -139v-473q0 -81 2.5 -105t13.5 -36q16 -19 49 -19 q11 0 25 2v-100q-43 -6 -61 -6q-139 0 -166 133q-93 -147 -254 -147q-117 0 -189.5 77t-72.5 203zM219 270q0 -82 38.5 -126t109.5 -44q51 0 96 23.5t74 64.5q29 38 39 84t10 138v112q-11 -6 -21.5 -10.5t-18 -7.5t-21.5 -7.5t-21.5 -7t-28.5 -8.5t-33 -10 q-80 -22 -110 -33.5t-53 -27.5q-60 -45 -60 -140z" />
<glyph unicode="b" horiz-adv-x="864" d="M111 0v1366h147v-446q51 60 102 85t119 25q154 0 234 -133t80 -387q0 -252 -82 -388t-236 -136q-72 0 -121.5 28t-105.5 99v-113h-137zM248 508q0 -205 48 -303.5t148 -98.5q101 0 150 97.5t49 298.5q0 211 -48 309t-151 98q-101 0 -148.5 -97.5t-47.5 -303.5z" />
<glyph unicode="c" horiz-adv-x="788" d="M72 518q0 260 87.5 386t268.5 126q148 0 227.5 -86t85.5 -250h-139q-3 110 -46.5 163.5t-129.5 53.5q-110 0 -157.5 -91.5t-47.5 -305.5q0 -223 47.5 -318.5t157.5 -95.5q92 0 135.5 63t44.5 199l144 -2q-1 -184 -85 -282t-241 -98q-180 0 -266 131.5t-86 406.5z" />
<glyph unicode="d" horiz-adv-x="862" d="M72 514q0 255 80.5 385.5t238.5 130.5q66 0 115 -25t98 -85v446h148v-1366h-138v119q-43 -69 -96.5 -101t-126.5 -32q-157 0 -238 135t-81 393zM221 508q0 -207 48 -304.5t149 -97.5t148.5 96.5t47.5 299.5q0 214 -46.5 310.5t-149.5 96.5q-101 0 -149 -97t-48 -304z" />
<glyph unicode="e" horiz-adv-x="808" d="M72 520q0 244 75 369q41 67 109.5 104t151.5 37q157 0 242 -122t85 -345q0 -36 -2 -65h-514q0 -207 48 -302.5t151 -95.5q164 0 176 238h135q-6 -169 -89.5 -263.5t-225.5 -94.5q-175 0 -258.5 131.5t-83.5 408.5zM221 610h365q0 299 -178 299q-89 0 -136.5 -76 t-50.5 -223z" />
<glyph unicode="f" horiz-adv-x="473" d="M31 897v113h135v116q0 132 54.5 186t189.5 54h51v-127h-33q-68 0 -91.5 -24.5t-23.5 -96.5v-108h148v-113h-148v-897h-147v897h-135z" />
<glyph unicode="g" horiz-adv-x="860" d="M72 500q0 267 77.5 398.5t235.5 131.5q76 0 128 -30.5t99 -102.5v113h138v-914q0 -125 -12 -187.5t-44 -109.5q-40 -61 -115.5 -94t-175.5 -33q-142 0 -215 56t-90 178h142q20 -125 166 -125q115 0 160.5 59t45.5 207v49q-49 -58 -101 -84t-120 -26t-128.5 27.5 t-96.5 76.5q-49 63 -71.5 161t-22.5 249zM221 508q0 -212 47 -309q20 -41 61.5 -67t88.5 -26q46 0 86.5 26t60.5 67q47 97 47 303q0 221 -47 315q-20 41 -61 66.5t-88 25.5q-46 0 -87 -25.5t-61 -66.5q-47 -94 -47 -309z" />
<glyph unicode="h" horiz-adv-x="856" d="M111 0v1366h147v-471q51 69 106.5 99t131.5 30q120 0 190 -82q35 -41 47 -94.5t12 -163.5v-684h-147v653q0 96 -6.5 134t-28.5 67q-36 49 -110 49q-46 0 -86.5 -20.5t-65.5 -55.5q-24 -33 -33.5 -78t-9.5 -124v-625h-147z" />
<glyph unicode="i" horiz-adv-x="368" d="M111 0v1010h147v-1010h-147zM111 1182v184h147v-184h-147z" />
<glyph unicode="j" horiz-adv-x="389" d="M-31 -205h49q68 0 90.5 36.5t22.5 148.5v1030h148v-1024q0 -186 -52 -250t-204 -64h-54v123zM131 1182v184h148v-184h-148z" />
<glyph unicode="k" horiz-adv-x="856" d="M111 0v1366h147v-823l387 467h174l-334 -385l365 -625h-176l-283 514l-133 -154v-360h-147z" />
<glyph unicode="l" horiz-adv-x="368" d="M111 0v1366h147v-1366h-147z" />
<glyph unicode="m" horiz-adv-x="1339" d="M111 0v1010h137v-113q61 70 117.5 98.5t134.5 28.5q86 0 139 -33t90 -108q59 77 117 109t137 32q125 0 188 -82q34 -43 46 -96.5t12 -161.5v-684h-148v672q0 84 -5.5 119.5t-22.5 60.5q-15 23 -45.5 37t-67.5 14q-83 0 -141 -61q-30 -32 -40.5 -67t-10.5 -103v-672h-148 v672q0 120 -27 170q-36 61 -122 61q-85 0 -140 -55q-32 -32 -42.5 -67t-10.5 -109v-672h-147z" />
<glyph unicode="n" horiz-adv-x="856" d="M111 0v1010h137v-115q52 69 110 99t136 30q125 0 192 -82q35 -42 47 -95.5t12 -162.5v-684h-147v653q0 96 -6.5 134t-28.5 67q-36 49 -110 49q-46 0 -86.5 -20.5t-65.5 -55.5q-24 -33 -33.5 -78t-9.5 -124v-625h-147z" />
<glyph unicode="o" horiz-adv-x="833" d="M72 506q0 258 87 391t257 133q344 0 344 -534q0 -252 -87.5 -384t-256.5 -132q-170 0 -257 133t-87 393zM221 506q0 -214 46 -310t149 -96q101 0 147.5 95.5t46.5 304.5q0 218 -45.5 313.5t-148.5 95.5t-149 -95.5t-46 -307.5z" />
<glyph unicode="p" horiz-adv-x="862" d="M111 -328v1338h137v-107q47 67 100 97t125 30q155 0 235 -132.5t80 -389.5q0 -254 -82 -388t-237 -134q-65 0 -115 25.5t-96 82.5v-422h-147zM248 508q0 -206 47.5 -304t148.5 -98q195 0 195 396q0 210 -48 308.5t-149 98.5q-100 0 -147 -97.5t-47 -303.5z" />
<glyph unicode="q" horiz-adv-x="870" d="M72 504q0 260 81.5 393t241.5 133q73 0 125.5 -30t102.5 -101v111h137v-1338h-148v422q-51 -58 -102 -83t-119 -25q-155 0 -237 133t-82 385zM221 508q0 -204 49 -303t152 -99q102 0 151.5 98t49.5 300q0 209 -49 307t-152 98t-152 -98.5t-49 -302.5z" />
<glyph unicode="r" horiz-adv-x="542" d="M111 0v1010h147v-123q54 80 111.5 110t152.5 27v-156q-23 4 -53 4q-114 0 -162.5 -63.5t-48.5 -212.5v-596h-147z" />
<glyph unicode="s" horiz-adv-x="753" d="M59 307h144q-1 -109 42 -158t138 -49q88 0 137 45t49 125q0 73 -34 107q-15 17 -36 27.5t-79 31.5l-119 43q-121 44 -169 102.5t-48 161.5q0 136 80 211.5t225 75.5q192 0 262 -127q27 -50 35 -164h-143q0 91 -36.5 130.5t-121.5 39.5q-80 0 -122 -39t-42 -112 q0 -60 28 -87.5t118 -60.5l133 -47q110 -38 158.5 -102t48.5 -170q0 -150 -84 -230.5t-240 -80.5q-123 0 -204.5 49t-104.5 135q-15 64 -15 143z" />
<glyph unicode="t" horiz-adv-x="485" d="M18 897v113h136v266h147v-266h160v-113h-160v-602q0 -75 5 -104t22 -46q23 -26 78 -26q24 0 63 4v-123q-41 -4 -90 -4q-127 0 -176 49q-29 31 -39 79.5t-10 156.5v616h-136z" />
<glyph unicode="u" horiz-adv-x="856" d="M111 326v684h147v-654q0 -96 6.5 -133.5t28.5 -66.5q37 -50 110 -50q46 0 86.5 20.5t65.5 55.5q24 33 33.5 78.5t9.5 124.5v625h147v-1010h-137v115q-52 -69 -110 -99t-136 -30q-125 0 -192 82q-35 42 -47 95.5t-12 162.5z" />
<glyph unicode="v" horiz-adv-x="749" d="M-6 1010h164l153 -568q40 -146 66 -274q20 110 67 274l164 568h150l-312 -1010h-151z" />
<glyph unicode="w" horiz-adv-x="1167" d="M0 1010h160l121 -555q33 -153 53 -287q13 113 45 287l108 555h172l113 -555q25 -125 45 -287q23 119 64 283l135 559h151l-272 -1010h-154l-123 573q-23 108 -45 265q-27 -173 -45 -265l-116 -573h-162z" />
<glyph unicode="x" horiz-adv-x="796" d="M-6 0l317 524l-301 486h174l213 -357l199 357h170l-291 -482l330 -528h-174l-240 403l-225 -403h-172z" />
<glyph unicode="y" horiz-adv-x="790" d="M-6 1010h166l162 -551q13 -44 79 -297q62 252 76 299l162 549h160l-342 -1069q-51 -157 -109.5 -213t-173.5 -56q-59 0 -106 13v122q49 -14 92 -14q58 0 95 39t56 121l11 47z" />
<glyph unicode="z" horiz-adv-x="681" d="M23 0v119l448 762h-401v129h563v-140l-436 -741h462v-129h-636z" />
<glyph unicode="{" horiz-adv-x="667" d="M74 465v108q63 19 89.5 62.5t26.5 128.5v321q0 152 70.5 216.5t237.5 64.5h32v-109h-22q-98 0 -134 -43.5t-36 -152.5v-305q0 -97 -25.5 -149t-91.5 -87q66 -38 91.5 -91.5t25.5 -152.5v-292q0 -69 10 -106t35 -62q15 -15 50.5 -25t74.5 -10h22v-109h-34 q-169 0 -237.5 67.5t-68.5 233.5v299q0 88 -26 132t-90 61z" />
<glyph unicode="|" horiz-adv-x="1024" d="M438 -342v1708h148v-1708h-148z" />
<glyph unicode="}" horiz-adv-x="667" d="M137 -219h23q93 0 131 41q22 25 30.5 58.5t8.5 96.5v306q0 97 25 148.5t91 88.5q-66 36 -91 89.5t-25 152.5v293q0 114 -34.5 158t-135.5 44h-23v109h35q169 0 237 -67.5t68 -233.5v-299q0 -88 26.5 -132t90.5 -61v-108q-63 -19 -90 -62.5t-27 -128.5v-321 q0 -152 -70 -216.5t-237 -64.5h-33v109z" />
<glyph unicode="~" horiz-adv-x="1366" d="M190 1251q66 131 127.5 182.5t153.5 51.5q73 0 229 -70q87 -41 124.5 -53t74.5 -12q58 0 98 30t88 109l91 -53q-56 -109 -113 -158q-83 -70 -182 -70q-42 0 -96 18.5t-191 80.5q-79 36 -135 36q-54 0 -95.5 -34.5t-84.5 -114.5z" />
<glyph unicode="&#xa1;" horiz-adv-x="395" d="M109 819v191h178v-191h-178zM115 63l43 619h80l43 -619v-405h-166v405z" />
<glyph unicode="&#xa2;" d="M119 709q0 244 74.5 368t234.5 144v186h88v-186q129 -12 200 -99t72 -237h-139q0 188 -133 215v-805q72 15 104.5 76.5t34.5 181.5l142 -2q1 -167 -71.5 -265.5t-209.5 -113.5v-213h-88v213q-158 15 -233.5 146.5t-75.5 390.5zM268 705q0 -203 36 -295.5t124 -114.5v803 q-86 -19 -123 -110t-37 -283z" />
<glyph unicode="&#xa3;" d="M37 96q114 90 162.5 170t48.5 174q0 90 -45 170h-166v86h121q-46 82 -65 145t-19 132q0 169 106.5 278t270.5 109q114 0 200.5 -47t132.5 -133q25 -46 35.5 -97t11.5 -139h-147q2 10 2 23q0 126 -60.5 196t-170.5 70q-111 0 -173.5 -70t-62.5 -194q0 -55 25.5 -116 t87.5 -157h301v-86h-264q24 -74 24 -133q0 -82 -35.5 -154.5t-117.5 -158.5q96 26 159 26q42 0 75 -8t122 -39q43 -16 74 -16q56 0 149 59l60 -110q-125 -76 -226 -76q-55 0 -164 35q-83 28 -149 28q-63 0 -112 -18.5t-109 -64.5z" />
<glyph unicode="&#xa4;" d="M59 993l70 68l131 -129q90 67 197 67q104 0 194 -67l131 129l70 -68l-131 -131q67 -94 67 -194q0 -102 -65 -193l131 -131l-68 -70l-131 132q-89 -68 -196 -68q-102 0 -197 68l-131 -132l-68 70l127 131q-65 89 -65 193q0 99 68 194zM236 668q0 -91 65 -156.5t156 -65.5 t156 65.5t65 156.5q0 92 -64.5 157.5t-154.5 65.5q-94 0 -158.5 -64.5t-64.5 -158.5z" />
<glyph unicode="&#xa5;" d="M4 1337h174l191 -450q62 -146 86 -207q38 93 282 657h174l-239 -501h198v-86h-239l-88 -189h307v-86h-328v-475h-147v475h-309v86h290l-86 189h-225v86h186z" />
<glyph unicode="&#xa6;" horiz-adv-x="1024" d="M438 313h148v-655h-148v655zM438 684v682h148v-682h-148z" />
<glyph unicode="&#xa7;" horiz-adv-x="958" d="M86 584q0 86 46.5 151.5t146.5 122.5q-69 57 -99 112.5t-30 127.5q0 130 87 209t230 79q90 0 159 -33t107 -96q23 -36 32 -79t11 -113h-147q-3 199 -166 199q-75 0 -120.5 -43t-45.5 -113q0 -60 30.5 -97.5t139.5 -109.5l158 -104q94 -63 122.5 -85.5t59.5 -54.5 q65 -71 65 -174q0 -163 -194 -286q72 -55 102.5 -110.5t30.5 -129.5q0 -135 -93 -220t-241 -85q-145 0 -239.5 87t-94.5 220v29h148v-19q0 -89 51 -141.5t139 -52.5q83 0 133 48t50 128q0 60 -28.5 95.5t-135.5 107.5l-187 125q-128 86 -177.5 153t-49.5 152zM233 604 q0 -55 43.5 -104t165.5 -131l152 -103q133 93 133 193q0 59 -38 104t-148 117l-172 113q-136 -82 -136 -189z" />
<glyph unicode="&#xa8;" horiz-adv-x="1024" d="M276 1182v184h148v-184h-148zM604 1182v184h146v-184h-146z" />
<glyph unicode="&#xa9;" horiz-adv-x="1445" d="M86 682q0 146 50.5 277t137 226t206.5 150.5t253 55.5q168 0 312.5 -96t229.5 -259.5t85 -353.5q0 -191 -85 -354t-231.5 -258t-318.5 -95q-130 0 -248 56t-204 151t-136.5 226t-50.5 274zM174 682q0 -169 74 -313.5t201 -229t276 -84.5q148 0 274 84.5t199.5 229.5 t73.5 315q0 168 -73 312.5t-198 229.5t-270 85q-153 0 -281 -83t-202 -228t-74 -318zM467 698q0 201 63.5 297.5t196.5 96.5q107 0 166.5 -65t64.5 -187h-102q-9 166 -131 166q-78 0 -115 -70t-37 -219q0 -185 35 -264.5t117 -79.5q137 0 137 219h107q-8 -156 -68 -230.5 t-178 -74.5q-132 0 -194 99.5t-62 311.5z" />
<glyph unicode="&#xaa;" horiz-adv-x="600" d="M88 645v96h424v-96h-424zM100 995q0 80 58 119q33 22 127 43q60 13 74 24.5t14 43.5q0 42 -19.5 61t-62.5 19q-44 0 -63 -17t-19 -55q0 -10 2 -16h-96v10q0 82 43.5 120.5t134.5 38.5q89 0 130.5 -38t41.5 -121v-232q0 -48 3.5 -57.5t18.5 -9.5q13 0 25 4v-74 q-40 -4 -43 -4q-67 0 -90 53q-32 -34 -61.5 -47.5t-69.5 -13.5q-66 0 -107 41.5t-41 107.5zM201 1001q0 -73 65 -73q54 0 82 39q23 29 23 102v39q-18 -7 -62 -18q-69 -17 -88.5 -33.5t-19.5 -55.5z" />
<glyph unicode="&#xab;" horiz-adv-x="772" d="M72 459v141l276 285v-168l-180 -182l180 -185v-170zM399 459v141l277 285v-168l-180 -182l180 -185v-170z" />
<glyph unicode="&#xac;" horiz-adv-x="1024" d="M68 410v137h886v-547h-147v410h-739z" />
<glyph unicode="&#xad;" horiz-adv-x="382" d="M0 461v143h383v-143h-383z" />
<glyph unicode="&#xae;" horiz-adv-x="1445" d="M86 682q0 146 50.5 277t137 226t206.5 150.5t253 55.5q168 0 312.5 -96t229.5 -259.5t85 -353.5q0 -191 -85 -354t-231.5 -258t-318.5 -95q-130 0 -248 56t-204 151t-136.5 226t-50.5 274zM174 682q0 -169 74 -313.5t201 -229t276 -84.5q148 0 274 84.5t199.5 229.5 t73.5 315q0 168 -73 312.5t-198 229.5t-270 85q-153 0 -281 -83t-202 -228t-74 -318zM500 301v778h227q227 0 227 -205q0 -137 -108 -182q57 -15 81.5 -54.5t24.5 -117.5v-86q0 -53 9.5 -77t39.5 -56h-131q-24 65 -24 133v72q0 84 -28.5 112.5t-112.5 28.5h-99v-346h-106z M606 733h115q127 0 127 129q0 67 -31 99t-96 32h-115v-260z" />
<glyph unicode="&#xaf;" horiz-adv-x="1024" d="M221 1182v108h580v-108h-580z" />
<glyph unicode="&#xb0;" horiz-adv-x="745" d="M86 1108q0 114 85 196t202 82q119 0 202.5 -82.5t83.5 -199.5t-84 -200t-202 -83q-120 0 -203.5 83.5t-83.5 203.5zM182 1106q0 -80 56 -136.5t135 -56.5q78 0 134 56.5t56 134.5t-56 134t-134 56t-134.5 -55.5t-56.5 -132.5z" />
<glyph unicode="&#xb1;" d="M84 178v109h747v-109h-747zM84 631v108h317v283h113v-283h317v-108h-317v-289h-113v289h-317z" />
<glyph unicode="&#xb2;" horiz-adv-x="614" d="M70 561q0 114 42.5 187t163.5 165q89 66 117.5 108.5t28.5 108.5t-31.5 102t-91.5 36q-125 0 -125 -160q0 -19 2 -33h-104q-2 16 -2 37q0 120 61 185t174 65q106 0 168 -63.5t62 -172.5q0 -81 -37 -138.5t-142 -139.5q-90 -68 -127.5 -112.5t-46.5 -94.5h363v-94h-473 q-2 6 -2 14z" />
<glyph unicode="&#xb3;" horiz-adv-x="614" d="M63 797h109q-3 -172 133 -172q63 0 100 42.5t37 114.5q0 75 -38 110.5t-121 35.5q-27 0 -47 -2v86q68 0 90 3.5t39 16.5q47 30 47 113q0 129 -115 129q-62 0 -87 -36t-26 -128h-106q3 106 31 158q54 94 194 94q103 0 162 -56t59 -153q0 -65 -23 -104t-83 -74 q75 -25 106 -68t31 -121q0 -115 -67 -182t-183 -67q-120 0 -181.5 66.5t-60.5 193.5z" />
<glyph unicode="&#xb4;" horiz-adv-x="1024" d="M451 1106l118 260h224l-224 -260h-118z" />
<glyph unicode="&#xb5;" horiz-adv-x="856" d="M111 -328v1338h147v-625q0 -86 9.5 -133t33.5 -82q22 -34 57.5 -56t69.5 -22t69 21.5t58 56.5q24 36 33.5 83.5t9.5 131.5v625h147v-1010h-137v102q-41 -61 -84 -88.5t-96 -27.5t-96 27.5t-84 88.5v-430h-137z" />
<glyph unicode="&#xb6;" d="M59 971q0 108 31.5 193t89.5 134q80 68 244 68h364v-1694h-120v1571h-136v-1571h-120v903h-11q-165 0 -253.5 102.5t-88.5 293.5z" />
<glyph unicode="&#xb7;" horiz-adv-x="393" d="M102 434v199h189v-199h-189z" />
<glyph unicode="&#xb8;" horiz-adv-x="1024" d="M385 -346l21 61q61 -39 114 -39q32 0 53 23t21 57t-19.5 55t-50.5 21q-23 0 -55 -14l-27 28l72 154h72l-56 -115q30 9 48 9q56 0 90 -35t34 -92q0 -68 -46.5 -112t-118.5 -44q-76 0 -152 43z" />
<glyph unicode="&#xb9;" horiz-adv-x="614" d="M123 1130v82h35q86 0 121.5 33t37.5 113h99v-811h-113v583h-180z" />
<glyph unicode="&#xba;" horiz-adv-x="512" d="M63 645v96h383v-96h-383zM63 1116q0 132 49 201t142 69q192 0 192 -274q0 -128 -49 -196t-141 -68q-94 0 -143.5 69t-49.5 199zM164 1118q0 -99 21.5 -143.5t68.5 -44.5q49 0 70.5 43.5t21.5 140.5q0 101 -21.5 146t-68.5 45q-49 0 -70.5 -44t-21.5 -143z" />
<glyph unicode="&#xbb;" horiz-adv-x="772" d="M96 180v170l180 185l-180 182v168l277 -285v-141zM424 180v170l180 185l-180 182v168l276 -285v-141z" />
<glyph unicode="&#xbc;" horiz-adv-x="1490" d="M123 1130v82h33q86 0 121.5 33t37.5 113h99v-811h-113v583h-178zM258 0l872 1352h101l-871 -1352h-102zM940 203v90l313 518h107v-514h82v-94h-82v-203h-107v203h-313zM1047 297h206v344z" />
<glyph unicode="&#xbd;" horiz-adv-x="1490" d="M123 1130v82h33q86 0 121.5 33t37.5 113h99v-811h-113v583h-178zM258 0l872 1352h101l-871 -1352h-102zM946 14q0 114 43 187.5t164 165.5q89 66 117 108.5t28 108.5t-31 101.5t-91 35.5q-125 0 -125 -160q0 -19 2 -33h-105q-2 16 -2 37q0 120 61.5 185t174.5 65 q106 0 167.5 -63t61.5 -172q0 -82 -37 -139.5t-141 -139.5q-90 -68 -127.5 -112.5t-46.5 -94.5h362v-94h-473q-2 6 -2 14z" />
<glyph unicode="&#xbe;" horiz-adv-x="1490" d="M63 797h109q-3 -172 133 -172q63 0 100 42.5t37 114.5q0 75 -38 110.5t-121 35.5q-27 0 -47 -2v86q68 0 90 3.5t39 16.5q47 30 47 113q0 129 -115 129q-62 0 -87 -36t-26 -128h-106q3 106 31 158q54 94 194 94q103 0 162 -56t59 -153q0 -65 -23 -104t-83 -74 q75 -25 106 -68t31 -121q0 -115 -67 -182t-183 -67q-120 0 -181.5 66.5t-60.5 193.5zM258 0l870 1352h103l-871 -1352h-102zM940 203v90l313 518h107v-514h82v-94h-82v-203h-107v203h-313zM1047 297h206v344z" />
<glyph unicode="&#xbf;" horiz-adv-x="823" d="M66 -12q0 96 32 165t133 187q82 96 100.5 135.5t18.5 120.5q0 43 -2 80h152v-58q0 -109 -29 -174.5t-131 -189.5q-72 -88 -94.5 -137.5t-22.5 -120.5q0 -106 50.5 -166.5t138.5 -60.5q106 0 150 74t44 214h152q-3 -175 -51 -262q-89 -164 -299 -164q-155 0 -248.5 97 t-93.5 260zM336 819v191h178v-191h-178z" />
<glyph unicode="&#xc0;" horiz-adv-x="1028" d="M10 0l393 1366h207l406 -1366h-174l-113 391h-446l-107 -391h-166zM125 1714h301l162 -172h-162zM322 528h370l-119 422q-21 77 -67 262q-32 -139 -68 -262z" />
<glyph unicode="&#xc1;" horiz-adv-x="1028" d="M10 0l393 1366h207l406 -1366h-174l-113 391h-446l-107 -391h-166zM322 528h370l-119 422q-21 77 -67 262q-32 -139 -68 -262zM444 1542l162 172h301l-301 -172h-162z" />
<glyph unicode="&#xc2;" horiz-adv-x="1028" d="M10 0l393 1366h207l406 -1366h-174l-113 391h-446l-107 -391h-166zM244 1542l166 172h190l168 -172h-164l-100 115l-101 -115h-159zM322 528h370l-119 422q-21 77 -67 262q-32 -139 -68 -262z" />
<glyph unicode="&#xc3;" horiz-adv-x="1028" d="M10 0l393 1366h207l406 -1366h-174l-113 391h-446l-107 -391h-166zM240 1534q30 184 174 184q32 0 67 -9.5t111 -39.5q46 -16 74 -16q54 0 65 63h98q-8 -88 -51.5 -135t-118.5 -47q-34 0 -65.5 8.5t-108.5 38.5q-46 18 -69 18q-59 0 -74 -65h-102zM322 528h370l-119 422 q-21 77 -67 262q-32 -139 -68 -262z" />
<glyph unicode="&#xc4;" horiz-adv-x="1028" d="M10 0l393 1366h207l406 -1366h-174l-113 391h-446l-107 -391h-166zM285 1536v178h149v-178h-149zM322 528h370l-119 422q-21 77 -67 262q-32 -139 -68 -262zM606 1536v178h150v-178h-150z" />
<glyph unicode="&#xc5;" horiz-adv-x="1028" d="M10 0l393 1366h207l406 -1366h-174l-113 391h-446l-107 -391h-166zM322 528h370l-119 422q-21 77 -67 262q-32 -139 -68 -262zM362 1632q0 64 46 110t110 46q66 0 112 -46t46 -112q0 -63 -46.5 -109t-109.5 -46q-65 0 -111.5 46.5t-46.5 110.5zM442 1632q0 -32 23 -55 t55 -23t55 23t23 55t-23 55t-55 23t-55 -23t-23 -55z" />
<glyph unicode="&#xc6;" horiz-adv-x="1507" d="M12 0l492 1366h911v-143h-545v-439h531v-137h-531v-504h560v-143h-721v393h-392l-139 -393h-166zM369 537h340v686h-103z" />
<glyph unicode="&#xc7;" horiz-adv-x="985" d="M88 696q0 399 125 553q115 142 313 142q173 0 273.5 -111.5t111.5 -314.5h-157q-7 147 -66.5 222t-167.5 75q-140 0 -205 -127.5t-65 -401.5q0 -338 62.5 -483.5t207.5 -145.5q242 0 248 392h158q-9 -246 -103 -377t-268 -142l-45 -92q30 9 47 9q56 0 90.5 -35t34.5 -92 q0 -67 -47.5 -111.5t-118.5 -44.5q-75 0 -151 43l20 61q61 -39 115 -39q32 0 52.5 23t20.5 57t-19 55t-50 21q-23 0 -55 -14l-27 28l59 131q-207 19 -300 188.5t-93 530.5z" />
<glyph unicode="&#xc8;" horiz-adv-x="958" d="M127 0v1366h731v-143h-569v-439h547v-137h-547v-504h590v-143h-752zM137 1714h301l162 -172h-162z" />
<glyph unicode="&#xc9;" horiz-adv-x="958" d="M127 0v1366h731v-143h-569v-439h547v-137h-547v-504h590v-143h-752zM424 1542l162 172h301l-301 -172h-162z" />
<glyph unicode="&#xca;" horiz-adv-x="958" d="M127 0v1366h731v-143h-569v-439h547v-137h-547v-504h590v-143h-752zM238 1542l165 172h191l168 -172h-164l-100 115l-101 -115h-159z" />
<glyph unicode="&#xcb;" horiz-adv-x="958" d="M127 0v1366h731v-143h-569v-439h547v-137h-547v-504h590v-143h-752zM264 1536v178h150v-178h-150zM586 1536v178h149v-178h-149z" />
<glyph unicode="&#xcc;" horiz-adv-x="415" d="M-168 1714h301l162 -172h-162zM127 0v1366h162v-1366h-162z" />
<glyph unicode="&#xcd;" horiz-adv-x="415" d="M127 0v1366h162v-1366h-162zM139 1542l162 172h301l-301 -172h-162z" />
<glyph unicode="&#xce;" horiz-adv-x="415" d="M-47 1542l166 172h190l168 -172h-164l-100 115l-100 -115h-160zM127 0v1366h162v-1366h-162z" />
<glyph unicode="&#xcf;" horiz-adv-x="415" d="M25 1536v178h149v-178h-149zM127 0v1366h162v-1366h-162zM254 1536v178h149v-178h-149z" />
<glyph unicode="&#xd0;" horiz-adv-x="1050" d="M53 647v129h76v590h338q166 0 248 -30t137 -111q53 -80 82 -219.5t29 -317.5q0 -206 -41 -357t-117 -229q-56 -56 -131.5 -79t-202.5 -23h-342v647h-76zM289 129h141q130 0 191 22.5t98 84.5q38 61 61 185.5t23 264.5q0 156 -26.5 285t-69.5 186q-35 44 -86 62t-142 18 h-190v-461h286v-129h-286v-518z" />
<glyph unicode="&#xd1;" horiz-adv-x="1062" d="M127 0v1366h211l356 -897q75 -190 101 -270q-9 175 -9 303v864h150v-1366h-205l-377 930q-36 87 -92 248q14 -154 14 -275v-903h-149zM285 1534q30 184 174 184q32 0 67 -9.5t111 -39.5q46 -16 74 -16q54 0 65 63h98q-8 -88 -51 -135t-118 -47q-35 0 -67 8.5t-108 38.5 q-46 18 -69 18q-59 0 -74 -65h-102z" />
<glyph unicode="&#xd2;" horiz-adv-x="1044" d="M88 684q0 357 88 514q109 193 346 193q126 0 218 -57.5t143 -166.5q71 -154 71 -491q0 -354 -88 -508q-109 -193 -344 -193q-254 0 -362 226q-72 157 -72 483zM160 1714h301l162 -172h-162zM250 684q0 -306 63 -438.5t209 -132.5q143 0 207 132.5t64 432.5 q0 310 -62.5 442.5t-208.5 132.5t-209 -132t-63 -437z" />
<glyph unicode="&#xd3;" horiz-adv-x="1044" d="M88 684q0 357 88 514q109 193 346 193q126 0 218 -57.5t143 -166.5q71 -154 71 -491q0 -354 -88 -508q-109 -193 -344 -193q-254 0 -362 226q-72 157 -72 483zM250 684q0 -306 63 -438.5t209 -132.5q143 0 207 132.5t64 432.5q0 310 -62.5 442.5t-208.5 132.5t-209 -132 t-63 -437zM446 1542l162 172h301l-301 -172h-162z" />
<glyph unicode="&#xd4;" horiz-adv-x="1044" d="M88 684q0 357 88 514q109 193 346 193q126 0 218 -57.5t143 -166.5q71 -154 71 -491q0 -354 -88 -508q-109 -193 -344 -193q-254 0 -362 226q-72 157 -72 483zM250 684q0 -306 63 -438.5t209 -132.5q143 0 207 132.5t64 432.5q0 310 -62.5 442.5t-208.5 132.5t-209 -132 t-63 -437zM266 1542l166 172h191l168 -172h-164l-101 115l-100 -115h-160z" />
<glyph unicode="&#xd5;" horiz-adv-x="1044" d="M88 684q0 357 88 514q109 193 346 193q126 0 218 -57.5t143 -166.5q71 -154 71 -491q0 -354 -88 -508q-109 -193 -344 -193q-254 0 -362 226q-72 157 -72 483zM250 684q0 -306 63 -438.5t209 -132.5q143 0 207 132.5t64 432.5q0 310 -62.5 442.5t-208.5 132.5t-209 -132 t-63 -437zM268 1534q30 184 174 184q55 0 179 -49q46 -16 73 -16q55 0 66 63h98q-8 -88 -51.5 -135t-118.5 -47q-34 0 -65.5 8.5t-108.5 38.5q-46 18 -70 18q-58 0 -73 -65h-103z" />
<glyph unicode="&#xd6;" horiz-adv-x="1044" d="M88 684q0 357 88 514q109 193 346 193q126 0 218 -57.5t143 -166.5q71 -154 71 -491q0 -354 -88 -508q-109 -193 -344 -193q-254 0 -362 226q-72 157 -72 483zM250 684q0 -306 63 -438.5t209 -132.5q143 0 207 132.5t64 432.5q0 310 -62.5 442.5t-208.5 132.5t-209 -132 t-63 -437zM293 1536v178h149v-178h-149zM614 1536v178h150v-178h-150z" />
<glyph unicode="&#xd7;" d="M139 440l242 242l-242 242l78 77l242 -241l239 241l78 -77l-241 -242l241 -242l-78 -78l-239 242l-242 -242z" />
<glyph unicode="&#xd8;" horiz-adv-x="1044" d="M59 18l105 175q-76 158 -76 489q0 359 88 516q109 193 344 193q179 0 293 -117l78 129l92 -60l-102 -172q73 -158 73 -487q0 -359 -88 -516q-111 -193 -344 -193q-182 0 -293 117l-77 -129zM250 682q0 -171 22 -309l455 757q-63 123 -205 123q-146 0 -209 -132.5 t-63 -438.5zM315 236q37 -66 85 -94.5t120 -28.5q146 0 209.5 132t63.5 435q0 196 -21 311z" />
<glyph unicode="&#xd9;" horiz-adv-x="1040" d="M127 451v915h162v-930q0 -105 12.5 -160t44.5 -92q58 -71 174 -71t174 71q32 37 45 92t13 160v930h161v-915q0 -123 -17 -198t-58 -132q-50 -69 -133.5 -107.5t-184.5 -38.5t-184 38.5t-133 107.5q-41 57 -58.5 132t-17.5 198zM166 1714h301l162 -172h-162z" />
<glyph unicode="&#xda;" horiz-adv-x="1040" d="M127 451v915h162v-930q0 -105 12.5 -160t44.5 -92q58 -71 174 -71t174 71q32 37 45 92t13 160v930h161v-915q0 -123 -17 -198t-58 -132q-50 -69 -133.5 -107.5t-184.5 -38.5t-184 38.5t-133 107.5q-41 57 -58.5 132t-17.5 198zM459 1542l162 172h301l-301 -172h-162z" />
<glyph unicode="&#xdb;" horiz-adv-x="1040" d="M127 451v915h162v-930q0 -105 12.5 -160t44.5 -92q58 -71 174 -71t174 71q32 37 45 92t13 160v930h161v-915q0 -123 -17 -198t-58 -132q-50 -69 -133.5 -107.5t-184.5 -38.5t-184 38.5t-133 107.5q-41 57 -58.5 132t-17.5 198zM272 1542l166 172h191l168 -172h-164 l-101 115l-100 -115h-160z" />
<glyph unicode="&#xdc;" horiz-adv-x="1040" d="M127 451v915h162v-930q0 -105 12.5 -160t44.5 -92q58 -71 174 -71t174 71q32 37 45 92t13 160v930h161v-915q0 -123 -17 -198t-58 -132q-50 -69 -133.5 -107.5t-184.5 -38.5t-184 38.5t-133 107.5q-41 57 -58.5 132t-17.5 198zM299 1536v178h150v-178h-150zM621 1536v178 h149v-178h-149z" />
<glyph unicode="&#xdd;" horiz-adv-x="919" d="M0 1366h180l193 -451q19 -44 29 -69t15 -38t9 -22q29 -69 33 -79q28 77 86 208l196 451h179l-388 -819v-547h-161v547zM391 1542l162 172h301l-301 -172h-162z" />
<glyph unicode="&#xde;" horiz-adv-x="931" d="M127 0v1366h162v-246h192q179 0 260 -67q63 -49 97 -135t34 -193q0 -191 -95 -293t-273 -102h-215v-330h-162zM289 467h188q120 0 177 62t57 194q0 130 -57 192t-177 62h-188v-510z" />
<glyph unicode="&#xdf;" horiz-adv-x="878" d="M111 0v883q0 161 12 238t47 132q37 60 104.5 93.5t153.5 33.5q147 0 229 -90t82 -250q0 -101 -35 -166t-110 -102q110 -46 158.5 -128.5t48.5 -225.5q0 -192 -93.5 -308t-248.5 -116q-27 0 -86 6v121q54 -4 55 -4q106 0 164.5 81t58.5 228q0 135 -62 208t-177 73 q-23 0 -39 -2v110h22q207 0 207 223q0 97 -47.5 155t-126.5 58q-92 0 -133 -65q-21 -33 -29 -99.5t-8 -207.5v-879h-147z" />
<glyph unicode="&#xe0;" horiz-adv-x="860" d="M70 260q0 72 26.5 129.5t73.5 91.5q35 26 80.5 42.5t152.5 43.5q121 29 153 57t32 103q0 95 -42 138.5t-134 43.5q-96 0 -135 -41t-39 -137h-138q0 154 76.5 226.5t239.5 72.5q154 0 235 -72q39 -36 55.5 -88t16.5 -139v-473q0 -81 2.5 -105t13.5 -36q16 -19 49 -19 q11 0 25 2v-100q-43 -6 -61 -6q-139 0 -166 133q-93 -147 -254 -147q-117 0 -189.5 77t-72.5 203zM178 1366h223l119 -260h-119zM219 270q0 -82 38.5 -126t109.5 -44q51 0 96 23.5t74 64.5q29 38 39 84t10 138v112q-11 -6 -21.5 -10.5t-18 -7.5t-21.5 -7.5t-21.5 -7 t-28.5 -8.5t-33 -10q-80 -22 -110 -33.5t-53 -27.5q-60 -45 -60 -140z" />
<glyph unicode="&#xe1;" horiz-adv-x="860" d="M70 260q0 72 26.5 129.5t73.5 91.5q35 26 80.5 42.5t152.5 43.5q121 29 153 57t32 103q0 95 -42 138.5t-134 43.5q-96 0 -135 -41t-39 -137h-138q0 154 76.5 226.5t239.5 72.5q154 0 235 -72q39 -36 55.5 -88t16.5 -139v-473q0 -81 2.5 -105t13.5 -36q16 -19 49 -19 q11 0 25 2v-100q-43 -6 -61 -6q-139 0 -166 133q-93 -147 -254 -147q-117 0 -189.5 77t-72.5 203zM219 270q0 -82 38.5 -126t109.5 -44q51 0 96 23.5t74 64.5q29 38 39 84t10 138v112q-11 -6 -21.5 -10.5t-18 -7.5t-21.5 -7.5t-21.5 -7t-28.5 -8.5t-33 -10 q-80 -22 -110 -33.5t-53 -27.5q-60 -45 -60 -140zM369 1106l118 260h224l-224 -260h-118z" />
<glyph unicode="&#xe2;" horiz-adv-x="860" d="M70 260q0 72 26.5 129.5t73.5 91.5q35 26 80.5 42.5t152.5 43.5q121 29 153 57t32 103q0 95 -42 138.5t-134 43.5q-96 0 -135 -41t-39 -137h-138q0 154 76.5 226.5t239.5 72.5q154 0 235 -72q39 -36 55.5 -88t16.5 -139v-473q0 -81 2.5 -105t13.5 -36q16 -19 49 -19 q11 0 25 2v-100q-43 -6 -61 -6q-139 0 -166 133q-93 -147 -254 -147q-117 0 -189.5 77t-72.5 203zM188 1106l187 260h149l189 -260h-150l-114 174l-107 -174h-154zM219 270q0 -82 38.5 -126t109.5 -44q51 0 96 23.5t74 64.5q29 38 39 84t10 138v112q-11 -6 -21.5 -10.5 t-18 -7.5t-21.5 -7.5t-21.5 -7t-28.5 -8.5t-33 -10q-80 -22 -110 -33.5t-53 -27.5q-60 -45 -60 -140z" />
<glyph unicode="&#xe3;" horiz-adv-x="860" d="M70 260q0 72 26.5 129.5t73.5 91.5q35 26 80.5 42.5t152.5 43.5q121 29 153 57t32 103q0 95 -42 138.5t-134 43.5q-96 0 -135 -41t-39 -137h-138q0 154 76.5 226.5t239.5 72.5q154 0 235 -72q39 -36 55.5 -88t16.5 -139v-473q0 -81 2.5 -105t13.5 -36q16 -19 49 -19 q11 0 25 2v-100q-43 -6 -61 -6q-139 0 -166 133q-93 -147 -254 -147q-117 0 -189.5 77t-72.5 203zM162 1145q30 184 174 184q32 0 63 -9t115 -40q50 -16 74 -16q54 0 65 63h99q-8 -88 -51.5 -135t-118.5 -47q-34 0 -65.5 8.5t-108.5 38.5q-46 18 -70 18q-59 0 -74 -65h-102z M219 270q0 -82 38.5 -126t109.5 -44q51 0 96 23.5t74 64.5q29 38 39 84t10 138v112q-11 -6 -21.5 -10.5t-18 -7.5t-21.5 -7.5t-21.5 -7t-28.5 -8.5t-33 -10q-80 -22 -110 -33.5t-53 -27.5q-60 -45 -60 -140z" />
<glyph unicode="&#xe4;" horiz-adv-x="860" d="M70 260q0 72 26.5 129.5t73.5 91.5q35 26 80.5 42.5t152.5 43.5q121 29 153 57t32 103q0 95 -42 138.5t-134 43.5q-96 0 -135 -41t-39 -137h-138q0 154 76.5 226.5t239.5 72.5q154 0 235 -72q39 -36 55.5 -88t16.5 -139v-473q0 -81 2.5 -105t13.5 -36q16 -19 49 -19 q11 0 25 2v-100q-43 -6 -61 -6q-139 0 -166 133q-93 -147 -254 -147q-117 0 -189.5 77t-72.5 203zM215 1182v184h147v-184h-147zM219 270q0 -82 38.5 -126t109.5 -44q51 0 96 23.5t74 64.5q29 38 39 84t10 138v112q-11 -6 -21.5 -10.5t-18 -7.5t-21.5 -7.5t-21.5 -7 t-28.5 -8.5t-33 -10q-80 -22 -110 -33.5t-53 -27.5q-60 -45 -60 -140zM543 1182v184h145v-184h-145z" />
<glyph unicode="&#xe5;" horiz-adv-x="860" d="M70 260q0 72 26.5 129.5t73.5 91.5q35 26 80.5 42.5t152.5 43.5q121 29 153 57t32 103q0 95 -42 138.5t-134 43.5q-96 0 -135 -41t-39 -137h-138q0 154 76.5 226.5t239.5 72.5q154 0 235 -72q39 -36 55.5 -88t16.5 -139v-473q0 -81 2.5 -105t13.5 -36q16 -19 49 -19 q11 0 25 2v-100q-43 -6 -61 -6q-139 0 -166 133q-93 -147 -254 -147q-117 0 -189.5 77t-72.5 203zM219 270q0 -82 38.5 -126t109.5 -44q51 0 96 23.5t74 64.5q29 38 39 84t10 138v112q-11 -6 -21.5 -10.5t-18 -7.5t-21.5 -7.5t-21.5 -7t-28.5 -8.5t-33 -10 q-80 -22 -110 -33.5t-53 -27.5q-60 -45 -60 -140zM281 1272q0 64 45.5 109.5t109.5 45.5q66 0 112 -45.5t46 -111.5q0 -63 -46.5 -109.5t-109.5 -46.5q-64 0 -110.5 46.5t-46.5 111.5zM360 1272q0 -32 23 -55t55 -23t55 23t23 55t-23 55t-55 23t-55 -23t-23 -55z" />
<glyph unicode="&#xe6;" horiz-adv-x="1243" d="M70 266q0 178 135 262q28 17 59.5 27t171.5 45q60 14 79.5 36t19.5 77q0 101 -36 148.5t-114 47.5q-72 0 -115 -44t-49 -124h-137q5 71 17.5 110.5t43.5 74.5q84 104 244 104t242 -104q88 104 223 104q69 0 137 -35t105 -90q75 -109 75 -319q0 -45 -2 -80h-485 q2 -166 3.5 -200.5t10.5 -74.5q13 -58 59 -94.5t103 -36.5q74 0 116 60.5t48 177.5h145q-10 -87 -26 -137.5t-45 -91.5q-43 -61 -110 -95t-144 -34q-91 0 -154.5 44t-107.5 138q-23 -52 -42.5 -78.5t-50.5 -48.5q-77 -55 -170 -55q-112 0 -180.5 79t-68.5 207zM207 264 q0 -74 38.5 -119t102.5 -45q78 0 126.5 53t57.5 150q3 23 3 203l-41 -14q-7 -2 -42 -12.5t-59 -16.5q-57 -15 -85.5 -29.5t-51.5 -38.5q-49 -52 -49 -131zM684 618h338v44q0 124 -44 186.5t-128 62.5q-90 0 -133 -75q-17 -32 -22.5 -63.5t-8.5 -108.5q0 -26 -2 -46z" />
<glyph unicode="&#xe7;" horiz-adv-x="788" d="M72 518q0 260 87.5 386t268.5 126q148 0 227.5 -86t85.5 -250h-139q-3 110 -46.5 163.5t-129.5 53.5q-110 0 -157.5 -91.5t-47.5 -305.5q0 -223 47.5 -318.5t157.5 -95.5q92 0 135.5 63t44.5 199l144 -2q0 -170 -75.5 -268t-215.5 -110l-47 -97q30 9 47 9q54 0 88.5 -35 t34.5 -92q0 -68 -47 -112t-119 -44q-74 0 -150 43l21 61q59 -39 112 -39q32 0 53 23t21 57t-19 55t-48 21q-24 0 -56 -14l-26 30l61 134q-166 20 -239.5 146.5t-73.5 389.5z" />
<glyph unicode="&#xe8;" horiz-adv-x="808" d="M72 520q0 244 75 369q41 67 109.5 104t151.5 37q157 0 242 -122t85 -345q0 -36 -2 -65h-514q0 -207 48 -302.5t151 -95.5q164 0 176 238h135q-6 -169 -89.5 -263.5t-225.5 -94.5q-175 0 -258.5 131.5t-83.5 408.5zM137 1366h223l119 -260h-119zM221 610h365 q0 299 -178 299q-89 0 -136.5 -76t-50.5 -223z" />
<glyph unicode="&#xe9;" horiz-adv-x="808" d="M72 520q0 244 75 369q41 67 109.5 104t151.5 37q157 0 242 -122t85 -345q0 -36 -2 -65h-514q0 -207 48 -302.5t151 -95.5q164 0 176 238h135q-6 -169 -89.5 -263.5t-225.5 -94.5q-175 0 -258.5 131.5t-83.5 408.5zM221 610h365q0 299 -178 299q-89 0 -136.5 -76 t-50.5 -223zM362 1106l119 260h224l-224 -260h-119z" />
<glyph unicode="&#xea;" horiz-adv-x="808" d="M72 520q0 244 75 369q41 67 109.5 104t151.5 37q157 0 242 -122t85 -345q0 -36 -2 -65h-514q0 -207 48 -302.5t151 -95.5q164 0 176 238h135q-6 -169 -89.5 -263.5t-225.5 -94.5q-175 0 -258.5 131.5t-83.5 408.5zM156 1106l186 260h150l188 -260h-150l-114 174 l-107 -174h-153zM221 610h365q0 299 -178 299q-89 0 -136.5 -76t-50.5 -223z" />
<glyph unicode="&#xeb;" horiz-adv-x="808" d="M72 520q0 244 75 369q41 67 109.5 104t151.5 37q157 0 242 -122t85 -345q0 -36 -2 -65h-514q0 -207 48 -302.5t151 -95.5q164 0 176 238h135q-6 -169 -89.5 -263.5t-225.5 -94.5q-175 0 -258.5 131.5t-83.5 408.5zM174 1182v184h148v-184h-148zM221 610h365 q0 299 -178 299q-89 0 -136.5 -76t-50.5 -223zM502 1182v184h145v-184h-145z" />
<glyph unicode="&#xec;" horiz-adv-x="368" d="M-88 1366h223l119 -260h-119zM111 0v1010h147v-1010h-147z" />
<glyph unicode="&#xed;" horiz-adv-x="368" d="M111 0v1010h147v-1010h-147zM129 1106l119 260h223l-223 -260h-119z" />
<glyph unicode="&#xee;" horiz-adv-x="368" d="M-72 1106l187 260h149l189 -260h-150l-115 174l-106 -174h-154zM111 0v1010h147v-1010h-147z" />
<glyph unicode="&#xef;" horiz-adv-x="368" d="M16 1182v184h142v-184h-142zM111 0v1010h147v-1010h-147zM227 1182v184h140v-184h-140z" />
<glyph unicode="&#xf0;" horiz-adv-x="833" d="M72 506q0 258 86.5 391t255.5 133q34 0 75 -8q-56 93 -100 149l-125 -108l-65 74l127 110q-39 42 -80 78l94 92q59 -59 82 -86l117 101l65 -74l-117 -103q145 -177 209 -352t64 -395q0 -262 -87 -395t-257 -133t-257 133t-87 393zM221 506q0 -214 46 -310t149 -96 q101 0 147.5 95.5t46.5 304.5q0 218 -45.5 314.5t-148.5 96.5t-149 -95.5t-46 -309.5z" />
<glyph unicode="&#xf1;" horiz-adv-x="856" d="M111 0v1010h137v-115q52 69 110 99t136 30q125 0 192 -82q35 -42 47 -95.5t12 -162.5v-684h-147v653q0 96 -6.5 134t-28.5 67q-36 49 -110 49q-46 0 -86.5 -20.5t-65.5 -55.5q-24 -33 -33.5 -78t-9.5 -124v-625h-147zM188 1145q30 184 174 184q32 0 64 -9t115 -40 q50 -16 73 -16q55 0 66 63h98q-8 -88 -51.5 -135t-118.5 -47q-34 0 -65.5 8.5t-108.5 38.5q-46 18 -69 18q-59 0 -74 -65h-103z" />
<glyph unicode="&#xf2;" horiz-adv-x="833" d="M72 506q0 258 87 391t257 133q344 0 344 -534q0 -252 -87.5 -384t-256.5 -132q-170 0 -257 133t-87 393zM143 1366h224l118 -260h-118zM221 506q0 -214 46 -310t149 -96q101 0 147.5 95.5t46.5 304.5q0 218 -45.5 313.5t-148.5 95.5t-149 -95.5t-46 -307.5z" />
<glyph unicode="&#xf3;" horiz-adv-x="833" d="M72 506q0 258 87 391t257 133q344 0 344 -534q0 -252 -87.5 -384t-256.5 -132q-170 0 -257 133t-87 393zM221 506q0 -214 46 -310t149 -96q101 0 147.5 95.5t46.5 304.5q0 218 -45.5 313.5t-148.5 95.5t-149 -95.5t-46 -307.5zM360 1106l119 260h223l-223 -260h-119z" />
<glyph unicode="&#xf4;" horiz-adv-x="833" d="M72 506q0 258 87 391t257 133q344 0 344 -534q0 -252 -87.5 -384t-256.5 -132q-170 0 -257 133t-87 393zM160 1106l186 260h150l188 -260h-149l-115 174l-107 -174h-153zM221 506q0 -214 46 -310t149 -96q101 0 147.5 95.5t46.5 304.5q0 218 -45.5 313.5t-148.5 95.5 t-149 -95.5t-46 -307.5z" />
<glyph unicode="&#xf5;" horiz-adv-x="833" d="M72 506q0 258 87 391t257 133q344 0 344 -534q0 -252 -87.5 -384t-256.5 -132q-170 0 -257 133t-87 393zM156 1145q30 184 174 184q32 0 63 -9t115 -40q50 -16 74 -16q54 0 65 63h98q-8 -88 -51.5 -135t-118.5 -47q-34 0 -65.5 8.5t-108.5 38.5q-46 18 -69 18 q-59 0 -74 -65h-102zM221 506q0 -214 46 -310t149 -96q101 0 147.5 95.5t46.5 304.5q0 218 -45.5 313.5t-148.5 95.5t-149 -95.5t-46 -307.5z" />
<glyph unicode="&#xf6;" horiz-adv-x="833" d="M72 506q0 258 87 391t257 133q344 0 344 -534q0 -252 -87.5 -384t-256.5 -132q-170 0 -257 133t-87 393zM186 1182v184h148v-184h-148zM221 506q0 -214 46 -310t149 -96q101 0 147.5 95.5t46.5 304.5q0 218 -45.5 313.5t-148.5 95.5t-149 -95.5t-46 -307.5zM514 1182v184 h145v-184h-145z" />
<glyph unicode="&#xf7;" d="M84 631v108h747v-108h-747zM371 322v184h174v-184h-174zM371 866v185h174v-185h-174z" />
<glyph unicode="&#xf8;" horiz-adv-x="831" d="M33 10l98 152q-59 127 -59 344q0 258 87 391t257 133q132 0 223 -88l80 123l82 -53l-103 -158q62 -133 62 -350q0 -258 -86.5 -391t-255.5 -133q-142 0 -228 92l-75 -117zM221 506q0 -94 12 -189l328 504q-49 88 -145 88q-103 0 -149 -95.5t-46 -307.5zM268 193 q50 -93 148 -93q103 0 148.5 96.5t45.5 313.5q0 102 -12 190z" />
<glyph unicode="&#xf9;" horiz-adv-x="856" d="M111 326v684h147v-654q0 -96 6.5 -133.5t28.5 -66.5q37 -50 110 -50q46 0 86.5 20.5t65.5 55.5q24 33 33.5 78.5t9.5 124.5v625h147v-1010h-137v115q-52 -69 -110 -99t-136 -30q-125 0 -192 82q-35 42 -47 95.5t-12 162.5zM162 1366h223l119 -260h-119z" />
<glyph unicode="&#xfa;" horiz-adv-x="856" d="M111 326v684h147v-654q0 -96 6.5 -133.5t28.5 -66.5q37 -50 110 -50q46 0 86.5 20.5t65.5 55.5q24 33 33.5 78.5t9.5 124.5v625h147v-1010h-137v115q-52 -69 -110 -99t-136 -30q-125 0 -192 82q-35 42 -47 95.5t-12 162.5zM381 1106l119 260h223l-223 -260h-119z" />
<glyph unicode="&#xfb;" horiz-adv-x="856" d="M111 326v684h147v-654q0 -96 6.5 -133.5t28.5 -66.5q37 -50 110 -50q46 0 86.5 20.5t65.5 55.5q24 33 33.5 78.5t9.5 124.5v625h147v-1010h-137v115q-52 -69 -110 -99t-136 -30q-125 0 -192 82q-35 42 -47 95.5t-12 162.5zM172 1106l186 260h150l188 -260h-149l-115 174 l-106 -174h-154z" />
<glyph unicode="&#xfc;" horiz-adv-x="856" d="M111 326v684h147v-654q0 -96 6.5 -133.5t28.5 -66.5q37 -50 110 -50q46 0 86.5 20.5t65.5 55.5q24 33 33.5 78.5t9.5 124.5v625h147v-1010h-137v115q-52 -69 -110 -99t-136 -30q-125 0 -192 82q-35 42 -47 95.5t-12 162.5zM205 1182v184h147v-184h-147zM532 1182v184h146 v-184h-146z" />
<glyph unicode="&#xfd;" horiz-adv-x="790" d="M-6 1010h166l162 -551q13 -44 79 -297q62 252 76 299l162 549h160l-342 -1069q-51 -157 -109.5 -213t-173.5 -56q-59 0 -106 13v122q49 -14 92 -14q58 0 95 39t56 121l11 47zM354 1106l119 260h223l-223 -260h-119z" />
<glyph unicode="&#xfe;" horiz-adv-x="862" d="M111 -328v1694h147v-448q45 60 96 86t119 26q155 0 235 -132.5t80 -389.5q0 -254 -82 -388t-237 -134q-65 0 -115 25.5t-96 82.5v-422h-147zM248 508q0 -206 47.5 -304t148.5 -98q195 0 195 398q0 210 -48 308.5t-149 98.5q-100 0 -147 -98t-47 -305z" />
<glyph unicode="&#xff;" horiz-adv-x="790" d="M-6 1010h166l162 -551q13 -44 79 -297q62 252 76 299l162 549h160l-342 -1069q-51 -157 -109.5 -213t-173.5 -56q-59 0 -106 13v122q49 -14 92 -14q58 0 95 39t56 121l11 47zM166 1182v184h147v-184h-147zM494 1182v184h145v-184h-145z" />
<glyph unicode="&#x152;" horiz-adv-x="1566" d="M88 688q0 341 102.5 522t296.5 181q53 0 96 -12t79.5 -36.5t64 -51.5t61.5 -68v143h666v-143h-506v-439h506v-137h-506v-504h539v-143h-699v143q-80 -168 -282 -168q-207 0 -312.5 180t-105.5 533zM250 692q0 -157 16 -263t51 -179q31 -63 88 -100t123 -37 q67 0 123.5 35.5t85.5 97t40 147t11 252.5q0 211 -11 309.5t-40 165.5q-28 61 -86 97t-129 36q-141 0 -206.5 -135.5t-65.5 -425.5z" />
<glyph unicode="&#x153;" horiz-adv-x="1349" d="M72 506q0 259 87 391.5t257 132.5q91 0 155 -35.5t113 -113.5q87 149 264 149q157 0 242.5 -122t85.5 -347q0 -34 -2 -63h-514q0 -207 47.5 -302.5t150.5 -95.5q165 0 177 238h135q-6 -168 -89.5 -263t-224.5 -95q-189 0 -272 151q-89 -151 -268 -151q-170 0 -257 133 t-87 393zM221 506q0 -214 46 -310t149 -96q101 0 147.5 95.5t46.5 304.5q0 218 -45.5 313.5t-148.5 95.5t-149 -95.5t-46 -307.5zM762 610h364q0 299 -178 299q-89 0 -136 -76t-50 -223z" />
<glyph unicode="&#x178;" horiz-adv-x="919" d="M0 1366h180l193 -451q19 -44 29 -69t15 -38t9 -22q29 -69 33 -79q28 77 86 208l196 451h179l-388 -819v-547h-161v547zM231 1536v178h150v-178h-150zM553 1536v178h149v-178h-149z" />
<glyph unicode="&#x2c6;" horiz-adv-x="1024" d="M250 1106l186 260h150l188 -260h-149l-115 174l-107 -174h-153z" />
<glyph unicode="&#x2dc;" horiz-adv-x="1024" d="M217 1145q30 184 174 184q32 0 63 -9t115 -40q50 -16 74 -16q55 0 66 63h98q-8 -88 -51.5 -135t-118.5 -47q-34 0 -65.5 8.5t-108.5 38.5q-46 18 -70 18q-59 0 -74 -65h-102z" />
<glyph unicode="&#x2000;" horiz-adv-x="894" />
<glyph unicode="&#x2001;" horiz-adv-x="1788" />
<glyph unicode="&#x2002;" horiz-adv-x="894" />
<glyph unicode="&#x2003;" horiz-adv-x="1788" />
<glyph unicode="&#x2004;" horiz-adv-x="596" />
<glyph unicode="&#x2005;" horiz-adv-x="447" />
<glyph unicode="&#x2006;" horiz-adv-x="298" />
<glyph unicode="&#x2007;" horiz-adv-x="298" />
<glyph unicode="&#x2008;" horiz-adv-x="223" />
<glyph unicode="&#x2009;" horiz-adv-x="357" />
<glyph unicode="&#x200a;" horiz-adv-x="99" />
<glyph unicode="&#x2010;" horiz-adv-x="382" d="M0 461v143h383v-143h-383z" />
<glyph unicode="&#x2011;" horiz-adv-x="382" d="M0 461v143h383v-143h-383z" />
<glyph unicode="&#x2012;" horiz-adv-x="382" d="M0 461v143h383v-143h-383z" />
<glyph unicode="&#x2013;" d="M88 461v143h739v-143h-739z" />
<glyph unicode="&#x2014;" horiz-adv-x="1120" d="M0 461v143h1120v-143h-1120z" />
<glyph unicode="&#x2018;" horiz-adv-x="407" d="M109 909v185q0 124 46 196.5t142 100.5v-101q-46 -20 -66 -63.5t-18 -118.5h84v-199h-188z" />
<glyph unicode="&#x2019;" horiz-adv-x="407" d="M109 885v100q46 22 66 65t18 117h-84v199h188v-184q0 -123 -45.5 -195.5t-142.5 -101.5z" />
<glyph unicode="&#x201a;" horiz-adv-x="407" d="M109 0v199h188v-185q0 -123 -45.5 -195.5t-142.5 -101.5v101q46 22 66 65t18 117h-84z" />
<glyph unicode="&#x201c;" horiz-adv-x="727" d="M109 909v185q0 124 46 196.5t142 100.5v-101q-46 -20 -66 -63.5t-18 -118.5h84v-199h-188zM430 909v185q0 124 46 196.5t142 100.5v-101q-45 -20 -65 -63.5t-18 -118.5h83v-199h-188z" />
<glyph unicode="&#x201d;" horiz-adv-x="727" d="M109 885v100q46 22 66 65t18 117h-84v199h188v-184q0 -123 -45.5 -195.5t-142.5 -101.5zM430 885v100q46 22 66 65t18 117h-84v199h188v-184q0 -123 -45.5 -195.5t-142.5 -101.5z" />
<glyph unicode="&#x201e;" horiz-adv-x="727" d="M109 0v199h188v-185q0 -123 -45.5 -195.5t-142.5 -101.5v101q46 22 66 65t18 117h-84zM430 0v199h188v-185q0 -123 -45.5 -195.5t-142.5 -101.5v101q46 22 66 65t18 117h-84z" />
<glyph unicode="&#x2022;" horiz-adv-x="1366" d="M401 692q0 120 83.5 202.5t205.5 82.5q114 0 196.5 -83.5t82.5 -199.5q0 -118 -83 -201t-200 -83t-201 82.5t-84 199.5z" />
<glyph unicode="&#x2026;" horiz-adv-x="1179" d="M102 0v199h189v-199h-189zM496 0v199h188v-199h-188zM889 0v199h188v-199h-188z" />
<glyph unicode="&#x202f;" horiz-adv-x="357" />
<glyph unicode="&#x2039;" horiz-adv-x="444" d="M72 459v141l276 285v-168l-180 -182l180 -185v-170z" />
<glyph unicode="&#x203a;" horiz-adv-x="444" d="M96 180v170l180 185l-180 182v168l277 -285v-141z" />
<glyph unicode="&#x205f;" horiz-adv-x="447" />
<glyph unicode="&#x20ac;" horiz-adv-x="1140" d="M84 553l31 86h104v86h-135l31 86h106q7 130 23.5 207.5t50.5 150.5q47 106 141.5 164t218.5 58q175 0 275.5 -111t109.5 -315h-155q-15 297 -236 297q-178 0 -237 -218q-25 -98 -31 -233h407l-30 -86h-379q0 -27 2 -86h348l-31 -86h-313q14 -235 77 -342t189 -107 q242 0 248 392h158q-24 -521 -410 -521q-200 0 -303.5 141t-120.5 437h-139z" />
<glyph unicode="&#x2122;" horiz-adv-x="1310" d="M14 1276v90h504v-90h-199v-688h-106v688h-199zM584 588v778h155q12 -41 66.5 -235.5t83.5 -299.5q12 -40 20 -81q23 93 51 196t62 226.5t53 193.5h154v-778h-101v504q0 20 2 106q-34 -121 -100 -348.5t-76 -261.5h-92l-151 514q-4 14 -11.5 37t-9.5 32l-8 31l2 -110v-504 h-100z" />
<glyph unicode="&#xe000;" horiz-adv-x="1013" d="M0 0v1014h1014v-1014h-1014z" />
</font>
</defs>
</svg>
