<?xml version="1.0" standalone="no"?>
<!DOCTYPE svg PUBLIC "-//W3C//DTD SVG 1.1//EN" "http://www.w3.org/Graphics/SVG/1.1/DTD/svg11.dtd" >
<svg xmlns="http://www.w3.org/2000/svg">
<metadata></metadata>
<defs>
<font id="foundation_sans_cd_blkregular" horiz-adv-x="997" >
<font-face units-per-em="2048" ascent="1690" descent="-358" />
<missing-glyph horiz-adv-x="382" />
<glyph unicode="&#xfb01;" horiz-adv-x="1013" d="M12 834v204h125v82q0 140 52 193t190 53h180v-213h-41q-41 0 -54 -15.5t-13 -62.5v-37h108v-204h-108v-834h-314v834h-125zM614 0v1038h314v-1038h-314zM614 1135v231h314v-231h-314z" />
<glyph unicode="&#xfb02;" horiz-adv-x="1013" d="M12 834v204h125v82q0 140 52 193t190 53h180v-213h-41q-41 0 -54 -15.5t-13 -62.5v-37h108v-204h-108v-834h-314v834h-125zM614 0v1366h314v-1366h-314z" />
<glyph unicode="&#xfb03;" horiz-adv-x="1488" d="M12 834v204h125v82q0 140 52 193t190 53h180v-213h-41q-41 0 -54 -15.5t-13 -62.5v-37h161v82q0 140 52 193t190 53h180v-213h-41q-41 0 -54 -15.5t-13 -62.5v-37h108v-204h-108v-834h-314v834h-161v-834h-314v834h-125zM1090 0v1038h313v-1038h-313zM1090 1135v231h313 v-231h-313z" />
<glyph unicode="&#xfb04;" horiz-adv-x="1488" d="M12 834v204h125v82q0 140 52 193t190 53h180v-213h-41q-41 0 -54 -15.5t-13 -62.5v-37h161v82q0 140 52 193t190 53h180v-213h-41q-41 0 -54 -15.5t-13 -62.5v-37h108v-204h-108v-834h-314v834h-161v-834h-314v834h-125zM1090 0v1366h313v-1366h-313z" />
<glyph horiz-adv-x="2048" />
<glyph horiz-adv-x="2048" />
<glyph unicode="&#xd;" horiz-adv-x="2048" />
<glyph unicode=" "  horiz-adv-x="382" />
<glyph unicode="&#x09;" horiz-adv-x="382" />
<glyph unicode="&#xa0;" horiz-adv-x="382" />
<glyph unicode="!" horiz-adv-x="415" d="M74 0v297h266v-297h-266zM74 731v635h266v-635l-53 -311h-162z" />
<glyph unicode="&#x22;" horiz-adv-x="931" d="M84 1366h342l-70 -618h-204zM508 1366h342l-68 -618h-204z" />
<glyph unicode="#" d="M63 397l25 170h129l31 219h-129l22 170h129l56 381h172l-54 -381h170l54 381h174l-54 -381h146l-25 -170h-145l-31 -219h146l-25 -170h-143l-58 -397h-174l58 397h-170l-56 -397h-174l56 397h-130zM391 567h168l31 219h-168z" />
<glyph unicode="$" d="M115 379v102h288v-125q0 -139 103 -139q41 0 67.5 30t26.5 77q0 66 -41.5 126.5t-138.5 137.5q-166 129 -231.5 228t-65.5 222q0 98 39 173.5t110 113.5q58 32 166 47v189h121v-189q155 -26 231 -106.5t76 -245.5v-94h-272v104q0 61 -25 93t-71 32q-41 0 -69 -26t-28 -64 q0 -66 72 -141q22 -25 41.5 -43t114.5 -101q141 -121 198.5 -220.5t57.5 -221.5q0 -157 -78.5 -240.5t-247.5 -105.5v-189h-121v189q-148 13 -243 108q-43 41 -61.5 107t-18.5 172z" />
<glyph unicode="%" horiz-adv-x="1572" d="M68 774v322q0 81 10.5 125.5t36.5 76.5q70 82 227 82t227 -82q26 -32 36.5 -76.5t10.5 -125.5v-322q0 -82 -10.5 -126t-36.5 -75q-69 -81 -227 -81t-227 81q-26 31 -36.5 75t-10.5 126zM279 748q0 -55 14 -77t49 -22t49.5 22t14.5 77v374q0 57 -13.5 79t-50.5 22 q-36 0 -49.5 -21.5t-13.5 -79.5v-374zM426 0l565 1366h158l-565 -1366h-158zM954 270v322q0 82 10.5 126t36.5 75q69 81 228 81q158 0 227 -81q26 -31 36.5 -75t10.5 -126v-322q0 -81 -10.5 -125.5t-36.5 -76.5q-70 -82 -227 -82q-158 0 -228 82q-26 32 -36.5 76.5 t-10.5 125.5zM1165 244q0 -57 14.5 -79t49.5 -22t49 22t14 79v374q0 57 -13 78t-50 21t-50.5 -21t-13.5 -78v-374z" />
<glyph unicode="&#x26;" horiz-adv-x="1118" d="M63 358q0 68 20 128t59.5 112t78 90t94.5 84q-68 106 -95 176t-27 139q0 132 94 215.5t243 83.5q143 0 232.5 -82t89.5 -212q0 -89 -49.5 -176t-155.5 -187l121 -203q27 76 27 158v23h254q-3 -302 -123 -449l151 -258h-309l-37 68q-122 -88 -270 -88q-171 0 -284.5 107.5 t-113.5 270.5zM354 369q0 -63 40 -106.5t100 -43.5q30 0 57 11t61 38l-159 271q-99 -79 -99 -170zM453 1112q0 -35 14 -69.5t55 -100.5q78 78 78 164q0 41 -19 63.5t-53 22.5t-54.5 -22.5t-20.5 -57.5z" />
<glyph unicode="'" horiz-adv-x="507" d="M84 1366h342l-70 -618h-204z" />
<glyph unicode="(" horiz-adv-x="546" d="M82 199v688q0 161 37 260t121 162q88 66 239 77v-176q-72 -11 -101.5 -68.5t-29.5 -189.5v-819q0 -132 29.5 -189.5t101.5 -68.5v-176q-167 14 -264 98q-71 65 -102 159t-31 243z" />
<glyph unicode=")" horiz-adv-x="546" d="M68 -125q72 11 101.5 68.5t29.5 189.5v819q0 132 -29.5 189.5t-101.5 68.5v176q167 -14 264 -98q71 -65 102 -158.5t31 -242.5v-688q0 -161 -37 -260t-121 -162q-89 -67 -239 -78v176z" />
<glyph unicode="*" horiz-adv-x="700" d="M84 1116l47 146l143 -48v152h152v-152l143 48l47 -146l-143 -47l90 -121l-123 -90l-90 123l-88 -123l-123 88l88 123z" />
<glyph unicode="+" d="M82 563v246h293v297h246v-297h292v-246h-292v-303h-246v303h-293z" />
<glyph unicode="," horiz-adv-x="415" d="M74 0v297h266v-334l-266 -237v165l125 109h-125z" />
<glyph unicode="-" horiz-adv-x="618" d="M0 420v252h618v-252h-618z" />
<glyph unicode="." horiz-adv-x="415" d="M74 0v297h266v-297h-266z" />
<glyph unicode="/" horiz-adv-x="763" d="M-106 -281l684 1647h178l-684 -1647h-178z" />
<glyph unicode="0" d="M82 442v455q0 153 26.5 235t94.5 138q114 90 295 90t295 -90q67 -55 93.5 -137t26.5 -236v-455q0 -154 -26 -235.5t-94 -136.5q-114 -90 -295 -90t-295 90q-68 56 -94.5 137.5t-26.5 234.5zM403 342q0 -78 21 -104q23 -33 74 -33q50 0 73 33q12 15 16.5 35.5t4.5 68.5 v655q0 48 -4.5 69t-16.5 36q-23 33 -73 33q-51 0 -74 -33q-21 -26 -21 -105v-655z" />
<glyph unicode="1" d="M231 1032v187q134 18 181 118h286v-1337h-321v1032h-146z" />
<glyph unicode="2" d="M76 0q2 119 13 190.5t49.5 148t97 143t170.5 175.5q122 119 166 190.5t44 147.5q0 62 -28.5 96.5t-79.5 34.5q-65 0 -90 -51q-12 -22 -16.5 -48.5t-4.5 -84.5v-88h-321v59q0 223 102 328q119 119 344 119q200 0 302 -94.5t102 -278.5q0 -124 -43 -215 q-24 -50 -56.5 -86.5t-142.5 -138.5q-129 -121 -173.5 -175t-72.5 -122h490v-250h-852z" />
<glyph unicode="3" d="M76 362v107h321v-107q0 -85 23.5 -121t77.5 -36q61 0 84.5 41.5t23.5 150.5q0 129 -35 172t-141 43h-82v205h55q114 0 154.5 37t40.5 143q0 75 -20.5 106.5t-71.5 31.5q-103 0 -103 -144v-47h-321v47q0 369 432 369q259 0 342 -133q49 -73 49 -238q0 -131 -45 -188 t-172 -86q73 -8 106.5 -18.5t59.5 -34.5q74 -68 74 -252q0 -226 -102 -328t-328 -102q-217 0 -319.5 93t-102.5 289z" />
<glyph unicode="4" d="M59 293v225l422 819h359v-819h98v-225h-98v-293h-287v293h-494zM309 518h244v260q0 160 4 250l-35 -82q-28 -62 -30 -65q-27 -54 -57.5 -114.5t-67.5 -134t-58 -114.5z" />
<glyph unicode="5" d="M72 350v113h307v-113q0 -77 25 -111t83 -34q34 0 60 16t35 45q14 41 14 178q0 171 -23 218q-10 22 -34.5 34.5t-53.5 12.5q-43 0 -70 -21t-50 -72h-267v723h762v-239h-495v-223q111 63 231 63q169 0 248 -117q38 -57 54.5 -138t16.5 -214q0 -147 -23.5 -234t-78.5 -145 q-103 -112 -340 -112q-229 0 -328 108q-73 79 -73 262z" />
<glyph unicode="6" d="M70 483v312q0 193 21.5 287t80.5 157q115 121 350 121q251 0 344 -150q42 -68 47 -204h-309q-3 66 -25.5 94t-72.5 28q-63 0 -89 -41t-26 -141v-121q65 57 121.5 81t126.5 24q136 0 209 -82q40 -44 56 -108t16 -181v-141q0 -124 -24.5 -202.5t-78.5 -131.5 q-110 -104 -330 -104q-219 0 -321 102q-55 57 -75.5 143.5t-20.5 257.5zM391 369q0 -77 15 -111q26 -47 88 -47q64 0 90 47q14 32 14 111v180q0 76 -14 108q-25 48 -90 48q-63 0 -88 -48q-15 -34 -15 -108v-180z" />
<glyph unicode="7" d="M113 1096v239h772v-266q-118 -213 -194 -496t-93 -573h-365q28 244 144 568t250 528h-514z" />
<glyph unicode="8" d="M68 387q0 158 40.5 226.5t151.5 97.5q-96 25 -138 92.5t-42 197.5q0 359 418 359q417 0 417 -359q0 -130 -42 -197.5t-138 -92.5q110 -28 151.5 -97t41.5 -227q0 -215 -101.5 -311t-328.5 -96t-328.5 96t-101.5 311zM389 401q0 -108 23.5 -149t85.5 -41q61 0 84.5 40 t23.5 144q0 71 -5.5 104.5t-20.5 53.5q-26 37 -82 37t-82 -37q-27 -36 -27 -152zM393 975q0 -79 24.5 -116.5t76.5 -37.5q100 0 100 152q0 82 -23.5 118.5t-76.5 36.5q-52 0 -76.5 -36.5t-24.5 -116.5z" />
<glyph unicode="9" d="M72 778v142q0 125 24.5 203t79.5 130q110 107 326 107q228 0 332 -113q51 -57 69.5 -140.5t18.5 -250.5v-338q0 -180 -21 -269.5t-78 -150.5q-109 -118 -342 -118q-258 0 -354 149q-24 38 -35 83.5t-14 121.5h309q3 -66 26 -94.5t74 -28.5q62 0 87.5 41t25.5 141v121 q-64 -57 -120.5 -80.5t-127.5 -23.5q-133 0 -209 82q-40 44 -55.5 108t-15.5 178zM393 791q0 -75 15 -109q26 -47 88 -47q63 0 83.5 36t20.5 120v180q0 78 -14 110q-26 47 -88 47q-66 0 -90 -47q-15 -35 -15 -110v-180z" />
<glyph unicode=":" horiz-adv-x="415" d="M74 0v297h266v-297h-266zM74 741v297h266v-297h-266z" />
<glyph unicode=";" horiz-adv-x="415" d="M74 0v297h266v-334l-266 -237v165l125 109h-125zM74 741v297h266v-297h-266z" />
<glyph unicode="&#x3c;" horiz-adv-x="1024" d="M68 549v287l886 477v-342l-524 -281l522 -280l2 -338z" />
<glyph unicode="=" d="M82 358v246h833v-246h-833zM82 762v246h833v-246h-833z" />
<glyph unicode="&#x3e;" horiz-adv-x="1024" d="M68 72v340l524 280l-522 281l-2 340l886 -479v-285z" />
<glyph unicode="?" horiz-adv-x="813" d="M33 932q3 115 14 176.5t37 108.5q95 167 344 167q172 0 262 -83.5t90 -243.5q0 -124 -63 -213q-4 -6 -7.5 -10.5l-7 -9t-10.5 -12t-13 -14t-20 -21t-26.5 -27.5t-37.5 -38.5t-48 -49.5q-68 -71 -93 -119t-32 -123h-234q0 119 47.5 206.5t188.5 229.5q59 60 77.5 96 t18.5 90q0 60 -30 94.5t-84 34.5q-43 0 -73 -23t-42 -67q-8 -36 -8 -149h-250zM160 0v297h266v-297h-266z" />
<glyph unicode="@" horiz-adv-x="1320" d="M82 682q0 196 78.5 357.5t216 254t303.5 92.5q117 0 221 -46.5t178 -127t117 -192.5t43 -238q0 -132 -44.5 -245.5t-121 -180.5t-164.5 -67q-99 0 -139 88q-73 -82 -166 -82q-101 0 -167 89t-66 226q0 161 88 278.5t209 117.5q42 0 70.5 -16.5t64.5 -59.5l12 53h162 l-80 -416q-10 -58 -10 -75q0 -52 41 -52q37 0 73 49.5t58 128.5t22 160q0 197 -112 324t-287 127q-184 0 -309 -158.5t-125 -390.5q0 -226 121 -387q115 -156 323 -156q97 0 178.5 24t178.5 81l49 -158q-193 -104 -406 -104q-278 0 -440 200q-83 101 -126.5 230.5 t-43.5 271.5zM551 610q0 -69 22 -112t56 -43q48 0 83.5 71.5t35.5 169.5q0 63 -18 99t-50 39q-50 3 -89.5 -66t-39.5 -158z" />
<glyph unicode="A" horiz-adv-x="1032" d="M10 0l271 1366h473l268 -1366h-340l-33 215h-268l-33 -215h-338zM412 446h202l-104 697z" />
<glyph unicode="B" horiz-adv-x="1056" d="M100 0v1366h473q125 0 193.5 -21t112.5 -73q77 -89 77 -268q0 -148 -38.5 -207.5t-147.5 -81.5q90 -10 134 -41t61.5 -96t17.5 -193q0 -212 -79.5 -298.5t-274.5 -86.5h-529zM428 231h96q76 0 107 39t31 136q0 95 -31 133.5t-107 38.5h-96v-347zM428 809h92 q72 0 100.5 35.5t28.5 126.5q0 92 -28.5 128t-100.5 36h-92v-326z" />
<glyph unicode="C" horiz-adv-x="1048" d="M88 420v526q0 134 24 209.5t81 128.5q114 102 339 102t338 -94q57 -50 81 -121t24 -198v-96h-328v124q0 77 -28 112.5t-89 35.5q-60 0 -87 -35.5t-27 -112.5v-636q0 -78 27 -114t87 -36q61 0 89 36t28 114v186h328v-131q0 -133 -24 -209t-81 -129q-114 -102 -340 -102 q-223 0 -337 102q-57 53 -81 129t-24 209z" />
<glyph unicode="D" horiz-adv-x="1067" d="M100 0v1366h463q121 0 195.5 -21.5t126.5 -72.5q54 -52 74 -125.5t20 -214.5v-498q0 -139 -20.5 -214.5t-73.5 -125.5q-52 -51 -127.5 -72.5t-194.5 -21.5h-463zM428 231h82q83 0 112 37.5t29 143.5v542q0 106 -29 143.5t-112 37.5h-82v-904z" />
<glyph unicode="E" horiz-adv-x="870" d="M100 0v1366h680v-250h-352v-297h334v-250h-334v-319h383v-250h-711z" />
<glyph unicode="F" horiz-adv-x="835" d="M100 0v1366h695v-250h-367v-301h332v-250h-332v-565h-328z" />
<glyph unicode="G" horiz-adv-x="1052" d="M88 422v524q0 135 23.5 210.5t81.5 127.5q111 102 337 102q215 0 330 -92q57 -46 80 -114.5t23 -192.5v-63h-328v77q0 78 -26 114t-83 36t-83.5 -36.5t-26.5 -113.5v-636q0 -77 27 -112.5t87 -35.5q113 0 113 148v161h-145v250h458v-776h-292v49q-56 -38 -109 -53.5 t-123 -15.5q-174 0 -262 102q-45 55 -63.5 130.5t-18.5 209.5z" />
<glyph unicode="H" horiz-adv-x="1054" d="M100 0v1366h328v-541h199v541h327v-1366h-327v555h-199v-555h-328z" />
<glyph unicode="I" horiz-adv-x="530" d="M100 0v1366h328v-1366h-328z" />
<glyph unicode="J" horiz-adv-x="960" d="M25 393v158h327v-207q0 -68 21.5 -98.5t68.5 -30.5q46 0 67 31t21 98v1022h328v-973q0 -127 -22 -198.5t-76 -118.5q-107 -96 -320 -96q-210 0 -317 96q-54 47 -76 119t-22 198z" />
<glyph unicode="K" horiz-adv-x="1099" d="M100 0v1366h322v-594l262 594h328l-267 -565l351 -801h-351l-227 551l-96 -172v-379h-322z" />
<glyph unicode="L" horiz-adv-x="815" d="M100 0v1366h328v-1116h363v-250h-691z" />
<glyph unicode="M" horiz-adv-x="1423" d="M100 0v1366h486l125 -813l129 813h481v-1366h-287l17 1081l-199 -1081h-287l-198 1081l16 -1081h-283z" />
<glyph unicode="N" horiz-adv-x="1136" d="M100 0v1366h363l297 -913l-6 913h280v-1366h-354l-305 883l6 -883h-281z" />
<glyph unicode="O" horiz-adv-x="1044" d="M88 381v604q0 109 20 176t66 113q112 112 348 112t348 -112q46 -46 66 -113t20 -176v-604q0 -109 -20 -176t-66 -113q-112 -112 -348 -112t-348 112q-46 46 -66 113t-20 176zM416 367q0 -144 106 -144q107 0 107 144v632q0 144 -107 144q-106 0 -106 -144v-632z" />
<glyph unicode="P" horiz-adv-x="995" d="M100 0v1366h478q215 0 299 -89.5t84 -318.5q0 -228 -85 -318.5t-298 -90.5h-150v-549h-328zM428 780h82q76 0 102.5 36.5t26.5 141.5q0 103 -26.5 140t-102.5 37h-82v-355z" />
<glyph unicode="Q" horiz-adv-x="1071" d="M100 379v606q0 109 19.5 175.5t66.5 113.5q112 112 349 112q236 0 348 -112q47 -47 66.5 -113.5t19.5 -175.5v-606q0 -145 -39.5 -223.5t-134.5 -124.5q-65 -30 -148 -45v-11q0 -30 10 -39.5t43 -9.5h86v-211h-178q-105 0 -145.5 34t-40.5 122v115q-170 29 -246 116 t-76 277zM428 367q0 -148 107 -148q106 0 106 148v630q0 146 -106 146q-107 0 -107 -146v-630z" />
<glyph unicode="R" horiz-adv-x="1087" d="M100 0v1366h469q117 0 184 -15.5t117 -52.5q103 -78 103 -282q0 -146 -35.5 -208.5t-132.5 -90.5q91 -19 126.5 -77t35.5 -187v-269q0 -68 12 -106.5t47 -77.5h-346q-35 60 -35 133v252q0 186 -137 186h-80v-571h-328zM428 803h78q69 0 107 45t38 129q0 158 -131 158h-92 v-332z" />
<glyph unicode="S" d="M49 338v137h328v-137q0 -56 33 -89.5t88 -33.5q54 0 85 34t31 93q0 90 -102 162l-231 164q-113 79 -162 160.5t-49 187.5q0 182 110 276t324 94q411 0 411 -342v-104h-327v104q0 107 -94 107q-43 0 -70 -26.5t-27 -69.5q0 -49 27.5 -85.5t101.5 -90.5l211 -152 q116 -84 160.5 -160.5t44.5 -195.5q0 -391 -455 -391q-214 0 -326 91.5t-112 266.5z" />
<glyph unicode="T" horiz-adv-x="923" d="M18 1116v250h889v-250h-280v-1116h-328v1116h-281z" />
<glyph unicode="U" horiz-adv-x="1087" d="M100 420v946h328v-995q0 -77 28 -112.5t89 -35.5q60 0 87 35.5t27 112.5v995h328v-946q0 -136 -23 -211t-81 -127q-114 -102 -338 -102q-226 0 -340 102q-57 53 -81 129t-24 209z" />
<glyph unicode="V" horiz-adv-x="933" d="M25 1366h337l105 -1032l106 1032h336l-221 -1366h-440z" />
<glyph unicode="W" horiz-adv-x="1474" d="M31 1366h321l97 -956l129 956h319l133 -956l96 956h316l-207 -1366h-358l-140 836l-129 -836h-368z" />
<glyph unicode="X" horiz-adv-x="923" d="M0 0l248 700l-246 666h346l111 -416l110 416h340l-247 -666l260 -700h-324l-139 459l-131 -459h-328z" />
<glyph unicode="Y" horiz-adv-x="917" d="M-2 1366h336l123 -510l121 510h344l-299 -856v-510h-328v510z" />
<glyph unicode="Z" horiz-adv-x="921" d="M43 0v238l459 878h-404v250h781v-244l-467 -872h467v-250h-836z" />
<glyph unicode="[" horiz-adv-x="550" d="M88 -281v1647h391v-184h-125v-1278h125v-185h-391z" />
<glyph unicode="\" horiz-adv-x="763" d="M10 1366h178l684 -1647h-178z" />
<glyph unicode="]" horiz-adv-x="550" d="M74 -96h125v1278h-125v184h391v-1647h-391v185z" />
<glyph unicode="^" horiz-adv-x="1024" d="M23 707l299 667h380l299 -667h-301l-188 438l-188 -438h-301z" />
<glyph unicode="_" horiz-adv-x="1024" d="M0 -111h1024v-200h-1024v200z" />
<glyph unicode="`" horiz-adv-x="1024" d="M238 1417h309l76 -266h-191z" />
<glyph unicode="a" horiz-adv-x="907" d="M61 289q0 71 7.5 112.5t35 78.5t69 64t120.5 66l78 39q83 41 116 75.5t33 78.5q0 35 -18 56.5t-49 21.5q-37 0 -51.5 -26.5t-14.5 -92.5v-43h-303q-2 18 -2 51q0 148 92 217.5t287 69.5q215 0 297 -82q35 -35 49 -92t14 -164v-719h-301v86q-58 -63 -101.5 -83.5 t-117.5 -20.5q-112 0 -174 65q-37 40 -51.5 93.5t-14.5 148.5zM383 313q0 -77 9 -103t36 -26q42 0 92 78v287l-47 -31q-60 -40 -75 -74.5t-15 -130.5z" />
<glyph unicode="b" horiz-adv-x="933" d="M86 0v1366h313v-428q94 119 232 119q63 0 112.5 -25t77.5 -69q26 -41 35.5 -96.5t9.5 -161.5v-371q0 -104 -10 -161t-35 -97q-28 -43 -78.5 -68.5t-111.5 -25.5q-144 0 -232 124v-106h-313zM399 332q0 -68 17.5 -96.5t58.5 -28.5q43 0 60.5 28t17.5 97v375q0 69 -17 96.5 t-59 27.5q-43 0 -60.5 -27.5t-17.5 -96.5v-375z" />
<glyph unicode="c" horiz-adv-x="925" d="M68 317v404q0 92 16.5 147t56.5 93q99 96 332 96q119 0 208.5 -28.5t133.5 -80.5q34 -38 48 -89.5t14 -137.5v-43h-314v70q0 43 -3.5 62t-14.5 34q-27 30 -72 30q-51 0 -71.5 -28t-20.5 -98v-457q0 -70 20.5 -98.5t71.5 -28.5q44 0 72 31q11 15 14.5 34t3.5 62v137h314 v-111q0 -90 -16.5 -144t-55.5 -93q-47 -47 -134 -72.5t-198 -25.5q-121 0 -210.5 28t-133.5 80q-33 38 -47 90t-14 137z" />
<glyph unicode="d" horiz-adv-x="931" d="M68 334v371q0 104 10 161t35 97q26 43 77.5 68.5t112.5 25.5q138 0 227 -119v428h314v-1366h-314v90q-89 -108 -227 -108q-61 0 -112.5 25.5t-77.5 68.5q-25 40 -35 97t-10 161zM381 342q0 -76 16.5 -105.5t59.5 -29.5q41 0 57 29.5t16 105.5v354q0 76 -16 105.5 t-57 29.5q-43 0 -59.5 -29.5t-16.5 -105.5v-354z" />
<glyph unicode="e" horiz-adv-x="944" d="M68 358v332q0 112 21.5 176t74.5 107q107 84 307 84q206 0 307 -88q54 -44 75 -108.5t21 -182.5v-184h-493v-193q0 -72 20 -100.5t70 -28.5q49 0 72 33q16 27 16 96v90h315v-33q0 -116 -21 -180t-75 -108q-108 -88 -307 -88q-202 0 -307 88q-53 44 -74.5 109t-21.5 179z M381 678h178v57q0 46 -3.5 65t-14.5 34q-23 30 -70 30t-70 -30q-12 -15 -16 -34.5t-4 -64.5v-57z" />
<glyph unicode="f" horiz-adv-x="579" d="M12 834v204h125v82q0 140 52 193t190 53h194v-211h-55q-41 0 -54 -15.5t-13 -64.5v-37h122v-204h-122v-834h-314v834h-125z" />
<glyph unicode="g" horiz-adv-x="931" d="M68 414v284q0 107 13 170.5t44 106.5q60 82 184 82q68 0 117.5 -26.5t103.5 -90.5v98h314v-848q0 -158 -17 -234.5t-63 -129.5q-46 -51 -128.5 -79t-189.5 -28q-183 0 -269.5 68t-92.5 219h295q1 -51 19.5 -73.5t56.5 -22.5q43 0 59 27t16 96v157q-98 -110 -221 -110 q-120 0 -182 78q-32 42 -45.5 98.5t-13.5 157.5zM369 420q0 -71 18 -100t64 -29q39 0 63 31q10 15 13 33.5t3 64.5v268q0 72 -17.5 100.5t-61.5 28.5q-46 0 -64 -28.5t-18 -100.5v-268z" />
<glyph unicode="h" horiz-adv-x="962" d="M86 0v1366h313v-438q114 129 250 129q124 0 182 -90q28 -43 37 -101.5t9 -193.5v-672h-314v672q0 73 -18 102t-64 29q-44 0 -63 -29.5t-19 -101.5v-672h-313z" />
<glyph unicode="i" horiz-adv-x="485" d="M86 0v1038h313v-1038h-313zM86 1135v231h313v-231h-313z" />
<glyph unicode="j" horiz-adv-x="487" d="M-14 -76h34q39 0 52.5 21.5t13.5 83.5v1009h313v-1087q0 -140 -45.5 -186t-183.5 -46h-184v205zM86 1135v231h313v-231h-313z" />
<glyph unicode="k" horiz-adv-x="972" d="M86 0v1366h313v-748l181 420h333l-196 -454l248 -584h-328l-238 549v-549h-313z" />
<glyph unicode="l" horiz-adv-x="485" d="M86 0v1366h313v-1366h-313z" />
<glyph unicode="m" horiz-adv-x="1452" d="M86 0v1038h313v-116q60 72 119.5 103.5t134.5 31.5q72 0 122 -31.5t93 -103.5q120 135 269 135q109 0 174 -74q32 -37 43.5 -88t11.5 -154v-741h-313v674q0 46 -3.5 64.5t-15.5 33.5q-21 31 -65 31q-47 0 -66.5 -28.5t-19.5 -100.5v-674h-314v674q0 47 -3 65t-15 33 q-21 31 -66 31q-47 0 -66.5 -28.5t-19.5 -100.5v-674h-313z" />
<glyph unicode="n" horiz-adv-x="962" d="M86 0v1038h313v-110q114 129 250 129q123 0 180 -88q28 -43 38 -101.5t10 -183.5v-684h-314v643q0 70 -3 91t-15 38q-19 31 -62 31q-41 0 -65 -31q-12 -17 -15.5 -40.5t-3.5 -88.5v-643h-313z" />
<glyph unicode="o" horiz-adv-x="931" d="M68 319v400q0 107 23.5 167.5t80.5 98.5q103 72 295 72q235 0 330 -103q37 -38 52 -91t15 -144v-400q0 -97 -18 -152t-62 -95q-99 -90 -317 -90q-194 0 -295 71q-57 38 -80.5 98.5t-23.5 167.5zM381 303q0 -72 19.5 -101.5t66.5 -29.5q41 0 65 31q12 15 15.5 33.5 t3.5 66.5v432q0 48 -3.5 67t-15.5 34q-23 30 -65 30q-47 0 -66.5 -29.5t-19.5 -101.5v-432z" />
<glyph unicode="p" horiz-adv-x="933" d="M86 -281v1319h313v-88q56 57 111 82t125 25q121 0 178 -82q31 -43 42 -103t11 -182v-321q0 -121 -7.5 -179t-29.5 -102q-25 -51 -75.5 -78.5t-118.5 -27.5q-73 0 -128 29.5t-108 97.5v-390h-313zM399 330q0 -68 17 -95.5t59 -27.5q43 0 60.5 27t17.5 96v379q0 68 -17 95 t-59 27q-43 0 -60.5 -27t-17.5 -95v-379z" />
<glyph unicode="q" horiz-adv-x="925" d="M68 344v336q0 118 12.5 182.5t44.5 108.5q64 86 197 86q69 0 115 -26.5t89 -90.5v98h314v-1319h-314v365q-99 -102 -229 -102q-129 0 -184 90q-27 44 -36 98t-9 174zM381 330q0 -68 16.5 -95.5t57.5 -27.5q40 0 55.5 27t15.5 96v379q0 68 -15.5 95t-55.5 27 q-41 0 -57.5 -27t-16.5 -95v-379z" />
<glyph unicode="r" horiz-adv-x="694" d="M86 0v1038h313v-151q72 97 130 133t141 35v-312l-19 2h-33q-114 0 -176 -75q-26 -30 -34.5 -63.5t-8.5 -100.5v-506h-313z" />
<glyph unicode="s" horiz-adv-x="888" d="M39 305v53h313v-53q0 -72 22 -102.5t75 -30.5q43 0 68.5 23t25.5 61q0 34 -19.5 58t-72.5 55l-191 110q-112 64 -157.5 129.5t-45.5 161.5q0 139 105 213t303 74q195 0 278.5 -70t83.5 -231v-45h-299v45q0 58 -19.5 84t-62.5 26q-38 0 -59.5 -19.5t-21.5 -53.5 t21.5 -58.5t80.5 -56.5l188 -105q108 -60 150.5 -120.5t42.5 -153.5q0 -74 -25 -136t-71 -100q-100 -81 -314 -81q-212 0 -305.5 75.5t-93.5 247.5z" />
<glyph unicode="t" horiz-adv-x="622" d="M16 834v204h129v228h314v-228h127v-204h-127v-502q0 -72 18 -96.5t72 -24.5h33v-211h-197q-80 0 -125.5 12t-71.5 41q-26 28 -34.5 66.5t-8.5 132.5v582h-129z" />
<glyph unicode="u" horiz-adv-x="964" d="M86 313v725h313v-682q0 -72 19 -100.5t65 -28.5q42 0 66 31q10 15 13 33.5t3 64.5v682h314v-1038h-314v106q-66 -67 -123.5 -95.5t-126.5 -28.5q-118 0 -178 81q-29 41 -40 93.5t-11 156.5z" />
<glyph unicode="v" horiz-adv-x="827" d="M10 1038h320l86 -780l88 780h315l-196 -1038h-410z" />
<glyph unicode="w" horiz-adv-x="1341" d="M10 1038h316l92 -770l108 770h297l131 -770l78 770h301l-182 -1038h-385l-84 496l-76 -496h-387z" />
<glyph unicode="x" horiz-adv-x="894" d="M-29 0l271 526l-242 512h330l104 -293l111 293h332l-250 -512l272 -526h-328l-139 334l-121 -334h-340z" />
<glyph unicode="y" horiz-adv-x="862" d="M10 1038h328l65 -557q19 -172 25 -305q10 172 29 305l80 557h315l-244 -1099q-11 -51 -21.5 -83t-26.5 -58.5t-34 -40t-49 -23t-67 -12.5t-91 -3h-219v226h58q86 0 86 67q0 16 -11 64z" />
<glyph unicode="z" horiz-adv-x="811" d="M27 0v227l395 607h-342v204h694v-241l-381 -578h381v-219h-747z" />
<glyph unicode="{" horiz-adv-x="706" d="M51 451v184q59 14 86 53.5t27 112.5v276q0 139 60 209.5t186 75.5h11q11 1 29.5 1.5t40 1t47.5 1t48 0.5h45v-184h-29q-104 0 -135 -25q-22 -18 -29.5 -43.5t-7.5 -87.5v-233q0 -100 -25 -152t-94 -98q67 -43 93 -98t26 -156v-228q0 -71 7.5 -95t33.5 -42q33 -20 131 -20 h29v-185h-47q-128 0 -181 3.5t-78.5 11t-60.5 30.5q-53 35 -76.5 94.5t-23.5 157.5v250q0 88 -25.5 129.5t-87.5 55.5z" />
<glyph unicode="|" horiz-adv-x="1024" d="M340 -342v1708h344v-1708h-344z" />
<glyph unicode="}" horiz-adv-x="706" d="M74 -96h28q106 0 136 24q22 17 29 42.5t7 88.5v234q0 100 25 152t94 98q-67 43 -93 98t-26 156v227q0 71 -7.5 95t-33.5 42q-35 21 -131 21h-28v184h47q128 0 180.5 -3.5t78 -11t60.5 -30.5q53 -35 77 -94.5t24 -157.5v-250q0 -88 25 -129t87 -55v-184 q-59 -14 -85.5 -53.5t-26.5 -112.5v-277q0 -138 -60.5 -208.5t-185.5 -75.5h-11q-11 -1 -29.5 -1.5t-40 -1.5t-47.5 -1.5t-48 -0.5h-45v185z" />
<glyph unicode="~" horiz-adv-x="1366" d="M188 1255q58 149 135 220t177 71q66 0 229 -67q79 -33 102.5 -40t47.5 -7q40 0 71.5 28t65.5 92l164 -139q-63 -158 -136 -223.5t-184 -65.5q-43 0 -83.5 12.5t-145.5 57.5q-103 43 -146 43q-37 0 -67 -27.5t-64 -93.5z" />
<glyph unicode="&#xa1;" horiz-adv-x="415" d="M74 307l53 311h162l51 -311v-635h-266v635zM74 741v297h266v-297h-266z" />
<glyph unicode="&#xa2;" d="M92 483v402q0 103 23.5 163t77.5 95q50 34 98.5 49t144.5 25v217h121v-217q87 -6 143.5 -23t104.5 -51q52 -36 74 -96t22 -162v-43h-313v69q0 73 -19 97q-27 30 -73 30q-48 0 -65 -26t-17 -101v-456q0 -75 17 -101t65 -26q46 0 73 30q19 24 19 97v137h313v-109 q0 -103 -22 -162t-74 -96q-51 -35 -106.5 -52t-141.5 -23v-218h-121v218q-99 11 -148 25.5t-98 49.5q-52 35 -75 95t-23 163z" />
<glyph unicode="&#xa3;" d="M86 1018q0 148 115 245t288 97q123 0 218 -49.5t180 -157.5l-217 -137q-65 110 -154 110q-54 0 -90.5 -33.5t-36.5 -82.5q0 -50 60 -164q48 -86 63 -133h287v-119h-260q2 -18 2 -43q0 -171 -105 -293h35q65 0 143 -22q79 -23 95.5 -27t33.5 -4q29 0 76 24l127 -153 q-89 -61 -147.5 -82t-141.5 -21q-67 0 -111 9t-163 45q-41 12 -98 12q-81 0 -179 -45v199q37 20 84 36q53 53 75 100.5t22 108.5q0 78 -45 156h-150v119h98q-59 115 -81.5 180.5t-22.5 124.5z" />
<glyph unicode="&#xa4;" d="M49 356l141 144q-49 90 -49 180q0 82 54 184l-146 144l121 120l147 -147q98 49 181 49q46 0 84 -10.5t94 -38.5l147 145l119 -118l-143 -142q55 -96 55 -188q0 -83 -49 -178l141 -142l-119 -120l-141 141q-93 -55 -182 -55q-93 0 -195 55l-141 -139zM344 678 q0 -63 45.5 -108.5t108.5 -45.5t108 46t45 110q0 63 -44.5 108.5t-106.5 45.5q-66 0 -111 -45t-45 -111z" />
<glyph unicode="&#xa5;" d="M23 1337h323l150 -518l143 518h334l-172 -463h147v-118h-190l-68 -187h244v-118h-277v-451h-321v451h-275v118h242l-67 187h-189v118h146z" />
<glyph unicode="&#xa6;" horiz-adv-x="1024" d="M340 313h344v-655h-344v655zM340 637v729h344v-729h-344z" />
<glyph unicode="&#xa7;" d="M68 614q0 146 133 256q-76 95 -76 203q0 154 100 233.5t295 79.5q209 0 297 -98q37 -40 53.5 -101.5t16.5 -162.5v-35h-260v35q0 91 -27 129.5t-90 38.5q-55 0 -87 -28.5t-32 -76.5q0 -41 25.5 -71t97.5 -76l205 -131q120 -77 164.5 -139t44.5 -154q0 -74 -30 -138.5 t-97 -133.5q82 -91 82 -215q0 -69 -25.5 -133t-69.5 -105q-95 -92 -296 -92t-296.5 88.5t-95.5 275.5v58h267v-58q0 -85 30.5 -123t98.5 -38q56 0 88 30t32 84q0 43 -24 72t-100 78l-183 117q-131 85 -186 160.5t-55 170.5zM293 653q0 -34 19 -57.5t79 -63.5l258 -172 q53 62 53 107q0 33 -20.5 57t-85.5 66l-248 162q-55 -47 -55 -99z" />
<glyph unicode="&#xa8;" horiz-adv-x="1024" d="M231 1157v266h240v-266h-240zM555 1157v266h240v-266h-240z" />
<glyph unicode="&#xa9;" horiz-adv-x="1429" d="M84 682q0 193 85 355t232.5 255.5t323.5 93.5q125 0 240.5 -56.5t199 -151t133.5 -224.5t50 -272q0 -143 -50 -272.5t-134.5 -224t-201.5 -150t-245 -55.5t-245 55.5t-202 149.5t-135.5 224.5t-50.5 272.5zM238 682q0 -113 38.5 -217t102.5 -179t153 -120t185 -45 q130 0 240 75.5t173.5 205t63.5 282.5q0 150 -63.5 279.5t-172 205.5t-235.5 76q-134 0 -245.5 -74.5t-175.5 -204t-64 -284.5zM444 543v295q0 76 15 120.5t51 73.5q69 60 209 60q138 0 209 -56q35 -28 50 -69.5t15 -114.5v-61h-213v77q0 38 -14.5 56t-46.5 18 q-62 0 -62 -74v-356q0 -74 62 -74q32 0 46.5 18t14.5 56v113h213v-82q0 -77 -15 -121.5t-50 -73.5q-68 -59 -209 -59q-138 0 -209 59q-35 29 -50.5 74t-15.5 121z" />
<glyph unicode="&#xaa;" horiz-adv-x="612" d="M84 999q0 68 24.5 98t110.5 70l43 21q46 22 61 33.5t15 29.5q0 11 -7 18t-18 7q-14 0 -19 -9t-5 -36v-17h-193q-2 12 -2 33q0 68 57 103.5t166 35.5q120 0 172 -43q22 -19 30.5 -48.5t8.5 -84.5v-366h-190v26q-39 -34 -109 -34q-74 0 -109.5 39.5t-35.5 123.5zM94 612 v131h434v-131h-434zM287 1014q0 -33 2.5 -44.5t9.5 -11.5q18 0 39 31v115q-33 -16 -42 -31.5t-9 -58.5z" />
<glyph unicode="&#xab;" horiz-adv-x="794" d="M47 547l158 233h215l-156 -233l156 -234h-215zM362 547l158 233h215l-155 -233l155 -234h-215z" />
<glyph unicode="&#xac;" horiz-adv-x="1024" d="M68 301v301h886v-602h-333v301h-553z" />
<glyph unicode="&#xad;" horiz-adv-x="618" d="M0 420v252h618v-252h-618z" />
<glyph unicode="&#xae;" horiz-adv-x="1429" d="M84 682q0 193 85 355t232.5 255.5t323.5 93.5q125 0 240.5 -56.5t199 -151t133.5 -224.5t50 -272q0 -143 -50 -272.5t-134.5 -224t-201.5 -150t-245 -55.5t-245 55.5t-202 149.5t-135.5 224.5t-50.5 272.5zM238 682q0 -113 38.5 -217t102.5 -179t153 -120t185 -45 q130 0 240 75.5t173.5 205t63.5 282.5q0 150 -63.5 279.5t-172 205.5t-235.5 76q-134 0 -245.5 -74.5t-175.5 -204t-64 -284.5zM442 301v780h289q140 0 195 -45t55 -159q0 -74 -16 -108.5t-62 -57.5q41 -19 57.5 -51.5t16.5 -98.5v-149q0 -40 8.5 -61t36.5 -50h-229 q-25 40 -25 84v139q0 97 -72 97h-41v-320h-213zM655 766h37q38 0 59 22.5t21 65.5q0 82 -70 82h-47v-170z" />
<glyph unicode="&#xaf;" horiz-adv-x="1024" d="M240 1204v174h546v-174h-546z" />
<glyph unicode="&#xb0;" horiz-adv-x="825" d="M84 1057q0 136 96.5 232.5t233.5 96.5q136 0 231.5 -96.5t95.5 -234.5q0 -134 -96 -230t-231 -96q-136 0 -233 96.5t-97 231.5zM231 1057q0 -75 54 -130t129 -55q72 0 127 54.5t55 126.5q0 79 -53.5 134.5t-130.5 55.5q-72 0 -126.5 -55.5t-54.5 -130.5z" />
<glyph unicode="&#xb1;" d="M82 41v246h831v-246h-831zM82 631v246h293v256h246v-256h292v-246h-292v-262h-246v262h-293z" />
<glyph unicode="&#xb2;" horiz-adv-x="684" d="M57 547q0 138 37.5 208t177.5 193q78 69 107 109.5t29 81.5q0 69 -62 69q-35 0 -49 -21.5t-14 -78.5v-59h-226v43q0 270 297 270q134 0 203.5 -57.5t69.5 -169.5q0 -73 -29 -129q-17 -31 -39 -53.5t-92 -82.5q-80 -70 -108 -98t-46 -61h316v-164h-572z" />
<glyph unicode="&#xb3;" horiz-adv-x="684" d="M57 768v70h226v-70q0 -46 13 -65t44 -19q37 0 50 22t13 82q0 72 -20.5 94.5t-85.5 22.5h-61v137h43q69 0 92.5 20t23.5 79q0 39 -11.5 55t-39.5 16q-57 0 -57 -73v-37h-226v37q0 110 73 166.5t216 56.5q141 0 201.5 -52t60.5 -175q0 -69 -21.5 -102.5t-80.5 -55.5 q66 -13 92.5 -54t26.5 -128q0 -135 -69 -197.5t-220 -62.5q-145 0 -214 57t-69 176z" />
<glyph unicode="&#xb4;" horiz-adv-x="1024" d="M401 1151l76 266h309l-196 -266h-189z" />
<glyph unicode="&#xb5;" horiz-adv-x="1024" d="M53 -350v1333h289v-504q0 -71 6 -105.5t23 -62.5q51 -88 141 -88q168 0 168 260v500h289v-983h-289v125q-54 -143 -172 -143q-56 0 -94 26.5t-72 89.5v-448h-289z" />
<glyph unicode="&#xb6;" d="M35 965q0 220 71 310.5t244 90.5h547v-1647h-199v1477h-123v-1477h-198v830h-27q-177 0 -246 92t-69 324z" />
<glyph unicode="&#xb7;" horiz-adv-x="415" d="M74 397v297h266v-297h-266z" />
<glyph unicode="&#xb8;" horiz-adv-x="1024" d="M358 -346l23 100q73 -37 111 -37q24 0 38.5 14.5t14.5 37.5q0 22 -11 34.5t-30 12.5q-16 0 -53 -15l-54 49l70 150h119l-41 -86q6 2 14 2q52 3 92.5 -38t40.5 -97q0 -72 -51.5 -119t-128.5 -47q-72 0 -154 39z" />
<glyph unicode="&#xb9;" horiz-adv-x="684" d="M160 1153v125q92 12 121 72h198v-803h-225v606h-94z" />
<glyph unicode="&#xba;" horiz-adv-x="632" d="M84 612v131h465v-131h-465zM84 1014v196q0 50 11 78.5t38 50.5q56 47 184 47q135 0 191 -53q41 -36 41 -123v-196q0 -51 -10.5 -80t-38.5 -51q-56 -47 -185 -47q-131 0 -190 53q-23 22 -32 49.5t-9 75.5zM283 1006q0 -30 7 -41t27 -11t26.5 10.5t6.5 41.5v213 q0 29 -6.5 39t-26.5 10t-27 -10t-7 -39v-213z" />
<glyph unicode="&#xbb;" horiz-adv-x="794" d="M59 313l156 234l-156 233h215l158 -233l-158 -234h-215zM375 313l155 234l-155 233h215l158 -233l-158 -234h-215z" />
<glyph unicode="&#xbc;" horiz-adv-x="1611" d="M160 1153v125q92 12 121 72h198v-803h-225v606h-94zM444 0l566 1366h155l-565 -1366h-156zM975 172v143l278 488h246v-481h64v-150h-64v-172h-203v172h-321zM1161 322h135v145q0 71 2 104q-15 -27 -18 -34q-19 -35 -35 -62z" />
<glyph unicode="&#xbd;" horiz-adv-x="1611" d="M160 1153v125q92 12 121 72h198v-803h-225v606h-94zM444 0l566 1366h155l-565 -1366h-156zM985 0q1 98 17 153.5t58 108.5t140 139q78 69 106.5 109.5t28.5 81.5q0 33 -16 51.5t-45 18.5q-35 0 -49.5 -22t-14.5 -79v-59h-225v43q0 270 297 270q134 0 203 -57.5t69 -169.5 q0 -75 -28 -129q-17 -31 -38.5 -53t-92.5 -82q-78 -66 -106.5 -96t-47.5 -64h315v-164h-571z" />
<glyph unicode="&#xbe;" horiz-adv-x="1611" d="M57 768v70h226v-70q0 -46 13 -65t44 -19q37 0 50 22t13 82q0 72 -20.5 94.5t-85.5 22.5h-61v137h43q69 0 92.5 20t23.5 79q0 39 -11.5 55t-39.5 16q-57 0 -57 -73v-37h-226v37q0 110 73 166.5t216 56.5q141 0 201.5 -52t60.5 -175q0 -69 -21.5 -102.5t-80.5 -55.5 q66 -13 92.5 -54t26.5 -128q0 -135 -69 -197.5t-220 -62.5q-145 0 -214 57t-69 176zM444 0l566 1366h155l-565 -1366h-156zM975 172v143l278 488h246v-481h64v-150h-64v-172h-203v172h-321zM1161 322h135v145q0 71 2 104q-15 -27 -18 -34q-19 -35 -35 -62z" />
<glyph unicode="&#xbf;" horiz-adv-x="813" d="M33 -18q0 98 32 160.5t132 164.5q123 125 154 175t40 139h236q-1 -120 -49.5 -209t-188.5 -230q-59 -60 -77.5 -96t-18.5 -90q0 -60 30.5 -94.5t84.5 -34.5q90 0 114 90q8 26 10 149h248q-1 -109 -13 -172.5t-38 -111.5q-93 -166 -344 -166q-172 0 -262 84t-90 242z M387 741v297h266v-297h-266z" />
<glyph unicode="&#xc0;" horiz-adv-x="1032" d="M10 0l271 1366h473l268 -1366h-340l-33 215h-268l-33 -215h-338zM248 1726h272l88 -268h-176zM412 446h202l-104 697z" />
<glyph unicode="&#xc1;" horiz-adv-x="1032" d="M10 0l271 1366h473l268 -1366h-340l-33 215h-268l-33 -215h-338zM412 446h202l-104 697zM436 1458l88 268h273l-185 -268h-176z" />
<glyph unicode="&#xc2;" horiz-adv-x="1032" d="M10 0l271 1366h473l268 -1366h-340l-33 215h-268l-33 -215h-338zM233 1464l166 262h265l161 -262h-225l-65 117l-76 -117h-226zM412 446h202l-104 697z" />
<glyph unicode="&#xc3;" horiz-adv-x="1032" d="M10 0l271 1366h473l268 -1366h-340l-33 215h-268l-33 -215h-338zM229 1575q75 90 122 122t104 32q29 0 57.5 -9t105.5 -41q50 -18 74 -18q22 0 39 9t49 38l88 -90q-87 -92 -133.5 -122t-103.5 -30q-31 0 -63 11.5t-99 46.5q-35 14 -61 14t-46.5 -11t-46.5 -40zM412 446 h202l-104 697z" />
<glyph unicode="&#xc4;" horiz-adv-x="1032" d="M10 0l271 1366h473l268 -1366h-340l-33 215h-268l-33 -215h-338zM242 1458v268h239v-268h-239zM412 446h202l-104 697zM565 1458v268h240v-268h-240z" />
<glyph unicode="&#xc5;" horiz-adv-x="1032" d="M10 0l271 1366h473l268 -1366h-340l-33 215h-268l-33 -215h-338zM328 1638q0 80 57.5 137.5t136.5 57.5q82 0 138.5 -57t56.5 -140q0 -78 -58 -135t-137 -57q-80 0 -137 57t-57 137zM412 446h202l-104 697zM444 1638q0 -31 23 -54t55 -23q31 0 54.5 22.5t23.5 54.5 t-23 55t-55 23t-55 -23t-23 -55z" />
<glyph unicode="&#xc6;" horiz-adv-x="1355" d="M6 0l340 1366h922v-250h-355v-297h336v-250h-336v-319h385v-250h-712v217h-217l-50 -217h-313zM420 449h166v692h-15z" />
<glyph unicode="&#xc7;" horiz-adv-x="1048" d="M88 420v526q0 134 24 209.5t81 128.5q114 102 339 102t338 -94q57 -50 81 -121t24 -198v-96h-328v124q0 77 -28 112.5t-89 35.5q-60 0 -87 -35.5t-27 -112.5v-636q0 -78 27 -114t87 -36q61 0 89 36t28 114v186h328v-131q0 -174 -45.5 -264t-157.5 -136q-68 -29 -180 -38 l-33 -68q66 1 107 -36t41 -99q0 -70 -52 -117t-129 -47q-74 0 -153 39l22 100q70 -37 111 -37q25 0 39 13.5t14 38.5q0 22 -11 34.5t-30 12.5q-16 0 -53 -15l-53 49l61 132q-138 11 -217 55q-92 50 -130 136t-38 247z" />
<glyph unicode="&#xc8;" horiz-adv-x="870" d="M100 0v1366h680v-250h-352v-297h334v-250h-334v-319h383v-250h-711zM166 1726h272l88 -268h-176z" />
<glyph unicode="&#xc9;" horiz-adv-x="870" d="M100 0v1366h680v-250h-352v-297h334v-250h-334v-319h383v-250h-711zM365 1458l88 268h272l-184 -268h-176z" />
<glyph unicode="&#xca;" horiz-adv-x="870" d="M100 0v1366h680v-250h-352v-297h334v-250h-334v-319h383v-250h-711zM152 1464l165 262h265l161 -262h-225l-65 117l-76 -117h-225z" />
<glyph unicode="&#xcb;" horiz-adv-x="870" d="M100 0v1366h680v-250h-352v-297h334v-250h-334v-319h383v-250h-711zM168 1458v268h240v-268h-240zM492 1458v268h239v-268h-239z" />
<glyph unicode="&#xcc;" horiz-adv-x="530" d="M-4 1726h272l88 -268h-176zM100 0v1366h328v-1366h-328z" />
<glyph unicode="&#xcd;" horiz-adv-x="530" d="M100 0v1366h328v-1366h-328zM195 1458l88 268h272l-184 -268h-176z" />
<glyph unicode="&#xce;" horiz-adv-x="530" d="M-18 1464l165 262h265l161 -262h-225l-65 117l-76 -117h-225zM100 0v1366h328v-1366h-328z" />
<glyph unicode="&#xcf;" horiz-adv-x="530" d="M20 1458v268h220v-268h-220zM100 0v1366h328v-1366h-328zM317 1458v268h220v-268h-220z" />
<glyph unicode="&#xd0;" horiz-adv-x="1067" d="M23 569v250h79v547h463q119 0 193.5 -21.5t126.5 -72.5q54 -52 74 -125.5t20 -216.5v-496q0 -139 -20.5 -214.5t-73.5 -125.5q-52 -51 -127 -72.5t-193 -21.5h-463v569h-79zM430 231h82q83 0 111 37.5t28 143.5v542q0 106 -28 143.5t-111 37.5h-82v-316h119v-250h-119 v-338z" />
<glyph unicode="&#xd1;" horiz-adv-x="1136" d="M100 0v1366h363l297 -913l-6 913h280v-1366h-354l-305 883l6 -883h-281zM283 1575q76 90 122 122t103 32q29 0 58.5 -9t105.5 -41q50 -18 73 -18q22 0 39.5 9t49.5 38l88 -90q-87 -91 -134 -121.5t-104 -30.5q-31 0 -63 11.5t-99 46.5q-35 14 -61 14t-46 -11t-46 -40z " />
<glyph unicode="&#xd2;" horiz-adv-x="1044" d="M88 381v604q0 109 20 176t66 113q112 112 348 112t348 -112q46 -46 66 -113t20 -176v-604q0 -109 -20 -176t-66 -113q-112 -112 -348 -112t-348 112q-46 46 -66 113t-20 176zM254 1726h272l88 -268h-176zM416 367q0 -144 106 -144q107 0 107 144v632q0 144 -107 144 q-106 0 -106 -144v-632z" />
<glyph unicode="&#xd3;" horiz-adv-x="1044" d="M88 381v604q0 109 20 176t66 113q112 112 348 112t348 -112q46 -46 66 -113t20 -176v-604q0 -109 -20 -176t-66 -113q-112 -112 -348 -112t-348 112q-46 46 -66 113t-20 176zM416 367q0 -144 106 -144q107 0 107 144v632q0 144 -107 144q-106 0 -106 -144v-632zM444 1458 l88 268h273l-184 -268h-177z" />
<glyph unicode="&#xd4;" horiz-adv-x="1044" d="M88 381v604q0 109 20 176t66 113q112 112 348 112t348 -112q46 -46 66 -113t20 -176v-604q0 -109 -20 -176t-66 -113q-112 -112 -348 -112t-348 112q-46 46 -66 113t-20 176zM233 1464l166 262h265l161 -262h-225l-65 117l-76 -117h-226zM416 367q0 -144 106 -144 q107 0 107 144v632q0 144 -107 144q-106 0 -106 -144v-632z" />
<glyph unicode="&#xd5;" horiz-adv-x="1044" d="M88 381v604q0 109 20 176t66 113q112 112 348 112t348 -112q46 -46 66 -113t20 -176v-604q0 -109 -20 -176t-66 -113q-112 -112 -348 -112t-348 112q-46 46 -66 113t-20 176zM238 1575q76 90 122 122t103 32q29 0 58.5 -9t105.5 -41q49 -18 73 -18q22 0 39 9t49 38 l89 -90q-87 -91 -134 -121.5t-104 -30.5q-31 0 -63 11.5t-99 46.5q-35 14 -61 14t-46 -11t-46 -40zM416 367q0 -144 106 -144q107 0 107 144v632q0 144 -107 144q-106 0 -106 -144v-632z" />
<glyph unicode="&#xd6;" horiz-adv-x="1044" d="M88 381v604q0 109 20 176t66 113q112 112 348 112t348 -112q46 -46 66 -113t20 -176v-604q0 -109 -20 -176t-66 -113q-112 -112 -348 -112t-348 112q-46 46 -66 113t-20 176zM248 1458v268h239v-268h-239zM416 367q0 -144 106 -144q107 0 107 144v632q0 144 -107 144 q-106 0 -106 -144v-632zM571 1458v268h240v-268h-240z" />
<glyph unicode="&#xd7;" d="M98 457l228 225l-228 227l174 174l228 -227l225 227l174 -174l-227 -227l227 -225l-174 -174l-225 227l-228 -227z" />
<glyph unicode="&#xd8;" horiz-adv-x="1044" d="M88 381v604q0 109 20 176t66 113q115 112 344 112q148 0 250 -45l70 150l100 -47l-76 -162q53 -53 73.5 -118t20.5 -179v-604q0 -109 -20 -176t-66 -113q-115 -112 -344 -112q-144 0 -250 45l-69 -150l-101 47l76 164q-52 49 -73 115t-21 180zM416 545l211 495 q-12 103 -105 103q-106 0 -106 -144v-454zM418 324q15 -101 104 -101q107 0 107 144v456z" />
<glyph unicode="&#xd9;" horiz-adv-x="1087" d="M100 420v946h328v-995q0 -77 28 -112.5t89 -35.5q60 0 87 35.5t27 112.5v995h328v-946q0 -136 -23 -211t-81 -127q-114 -102 -338 -102q-226 0 -340 102q-57 53 -81 129t-24 209zM274 1726h273l88 -268h-176z" />
<glyph unicode="&#xda;" horiz-adv-x="1087" d="M100 420v946h328v-995q0 -77 28 -112.5t89 -35.5q60 0 87 35.5t27 112.5v995h328v-946q0 -136 -23 -211t-81 -127q-114 -102 -338 -102q-226 0 -340 102q-57 53 -81 129t-24 209zM473 1458l88 268h273l-185 -268h-176z" />
<glyph unicode="&#xdb;" horiz-adv-x="1087" d="M100 420v946h328v-995q0 -77 28 -112.5t89 -35.5q60 0 87 35.5t27 112.5v995h328v-946q0 -136 -23 -211t-81 -127q-114 -102 -338 -102q-226 0 -340 102q-57 53 -81 129t-24 209zM254 1464l166 262h264l162 -262h-225l-66 117l-76 -117h-225z" />
<glyph unicode="&#xdc;" horiz-adv-x="1087" d="M100 420v946h328v-995q0 -77 28 -112.5t89 -35.5q60 0 87 35.5t27 112.5v995h328v-946q0 -136 -23 -211t-81 -127q-114 -102 -338 -102q-226 0 -340 102q-57 53 -81 129t-24 209zM268 1458v268h240v-268h-240zM592 1458v268h239v-268h-239z" />
<glyph unicode="&#xdd;" horiz-adv-x="917" d="M-2 1366h336l123 -510l121 510h344l-299 -856v-510h-328v510zM389 1458l88 268h273l-185 -268h-176z" />
<glyph unicode="&#xde;" horiz-adv-x="995" d="M100 0v1366h328v-205h150q215 0 299 -89t84 -318q0 -228 -85 -319t-298 -91h-150v-344h-328zM428 575h82q76 0 102.5 37t26.5 142q0 103 -26.5 139.5t-102.5 36.5h-82v-355z" />
<glyph unicode="&#xdf;" horiz-adv-x="964" d="M86 0v997q0 120 24 191t80 115q103 81 320 81q197 0 284 -70.5t87 -230.5q0 -103 -27 -151.5t-98 -71.5q89 -20 115 -65t26 -177v-284q0 -192 -59.5 -263t-219.5 -71h-153v205h35q48 0 66 22t18 82v361q0 65 -17 85.5t-71 20.5h-31v185h35q47 0 64.5 23.5t17.5 86.5 q0 64 -20 92.5t-64 28.5q-57 0 -78 -41.5t-21 -153.5v-997h-313z" />
<glyph unicode="&#xe0;" horiz-adv-x="907" d="M61 289q0 71 7.5 112.5t35 78.5t69 64t120.5 66l78 39q83 41 116 75.5t33 78.5q0 35 -18 56.5t-49 21.5q-37 0 -51.5 -26.5t-14.5 -92.5v-43h-303q-2 18 -2 51q0 148 92 217.5t287 69.5q215 0 297 -82q35 -35 49 -92t14 -164v-719h-301v86q-58 -63 -101.5 -83.5 t-117.5 -20.5q-112 0 -174 65q-37 40 -51.5 93.5t-14.5 148.5zM166 1417h309l76 -266h-191zM383 313q0 -77 9 -103t36 -26q42 0 92 78v287l-47 -31q-60 -40 -75 -74.5t-15 -130.5z" />
<glyph unicode="&#xe1;" horiz-adv-x="907" d="M61 289q0 71 7.5 112.5t35 78.5t69 64t120.5 66l78 39q83 41 116 75.5t33 78.5q0 35 -18 56.5t-49 21.5q-37 0 -51.5 -26.5t-14.5 -92.5v-43h-303q-2 18 -2 51q0 148 92 217.5t287 69.5q215 0 297 -82q35 -35 49 -92t14 -164v-719h-301v86q-58 -63 -101.5 -83.5 t-117.5 -20.5q-112 0 -174 65q-37 40 -51.5 93.5t-14.5 148.5zM383 313q0 -77 9 -103t36 -26q42 0 92 78v287l-47 -31q-60 -40 -75 -74.5t-15 -130.5zM385 1151l76 266h309l-197 -266h-188z" />
<glyph unicode="&#xe2;" horiz-adv-x="907" d="M61 289q0 71 7.5 112.5t35 78.5t69 64t120.5 66l78 39q83 41 116 75.5t33 78.5q0 35 -18 56.5t-49 21.5q-37 0 -51.5 -26.5t-14.5 -92.5v-43h-303q-2 18 -2 51q0 148 92 217.5t287 69.5q215 0 297 -82q35 -35 49 -92t14 -164v-719h-301v86q-58 -63 -101.5 -83.5 t-117.5 -20.5q-112 0 -174 65q-37 40 -51.5 93.5t-14.5 148.5zM178 1157l166 262h264l162 -262h-225l-66 117l-76 -117h-225zM383 313q0 -77 9 -103t36 -26q42 0 92 78v287l-47 -31q-60 -40 -75 -74.5t-15 -130.5z" />
<glyph unicode="&#xe3;" horiz-adv-x="907" d="M61 289q0 71 7.5 112.5t35 78.5t69 64t120.5 66l78 39q83 41 116 75.5t33 78.5q0 35 -18 56.5t-49 21.5q-37 0 -51.5 -26.5t-14.5 -92.5v-43h-303q-2 18 -2 51q0 148 92 217.5t287 69.5q215 0 297 -82q35 -35 49 -92t14 -164v-719h-301v86q-58 -63 -101.5 -83.5 t-117.5 -20.5q-112 0 -174 65q-37 40 -51.5 93.5t-14.5 148.5zM211 1270q67 82 109.5 110.5t95.5 28.5q27 0 53 -7.5t96 -35.5q39 -16 66 -16q20 0 36.5 8.5t45.5 34.5l80 -84q-78 -82 -122.5 -110t-95.5 -28q-28 0 -56 10t-91 42q-25 14 -55 14q-23 0 -41 -10t-43 -37z M383 313q0 -77 9 -103t36 -26q42 0 92 78v287l-47 -31q-60 -40 -75 -74.5t-15 -130.5z" />
<glyph unicode="&#xe4;" horiz-adv-x="907" d="M61 289q0 71 7.5 112.5t35 78.5t69 64t120.5 66l78 39q83 41 116 75.5t33 78.5q0 35 -18 56.5t-49 21.5q-37 0 -51.5 -26.5t-14.5 -92.5v-43h-303q-2 18 -2 51q0 148 92 217.5t287 69.5q215 0 297 -82q35 -35 49 -92t14 -164v-719h-301v86q-58 -63 -101.5 -83.5 t-117.5 -20.5q-112 0 -174 65q-37 40 -51.5 93.5t-14.5 148.5zM186 1157v266h240v-266h-240zM383 313q0 -77 9 -103t36 -26q42 0 92 78v287l-47 -31q-60 -40 -75 -74.5t-15 -130.5zM510 1157v266h240v-266h-240z" />
<glyph unicode="&#xe5;" horiz-adv-x="907" d="M61 289q0 71 7.5 112.5t35 78.5t69 64t120.5 66l78 39q83 41 116 75.5t33 78.5q0 35 -18 56.5t-49 21.5q-37 0 -51.5 -26.5t-14.5 -92.5v-43h-303q-2 18 -2 51q0 148 92 217.5t287 69.5q215 0 297 -82q35 -35 49 -92t14 -164v-719h-301v86q-58 -63 -101.5 -83.5 t-117.5 -20.5q-112 0 -174 65q-37 40 -51.5 93.5t-14.5 148.5zM272 1352q0 79 57.5 136.5t137.5 57.5q82 0 138.5 -56.5t56.5 -139.5q0 -78 -58 -135.5t-137 -57.5t-137 57.5t-58 137.5zM383 313q0 -77 9 -103t36 -26q42 0 92 78v287l-47 -31q-60 -40 -75 -74.5t-15 -130.5z M389 1352q0 -31 23 -54.5t55 -23.5q31 0 54.5 23t23.5 55t-23 55t-55 23t-55 -23t-23 -55z" />
<glyph unicode="&#xe6;" horiz-adv-x="1394" d="M61 289q0 133 41.5 190t190.5 131l78 39q84 41 117.5 75.5t33.5 78.5q0 35 -18 56.5t-49 21.5q-38 0 -53 -26.5t-15 -92.5v-43h-303q-2 18 -2 51q0 148 91.5 217.5t285.5 69.5q146 0 235 -39q88 39 232 39q205 0 307 -86q52 -44 73 -109.5t21 -183.5v-184h-491v-193 q0 -72 19.5 -100.5t70.5 -28.5q49 0 69 33q19 27 19 96v90h313v-33q0 -116 -21 -180.5t-73 -107.5q-104 -88 -307 -88q-241 0 -340 122q-67 -70 -124 -96t-145 -26q-121 0 -186 65q-39 39 -54.5 92.5t-15.5 149.5zM383 313q0 -78 8.5 -103.5t36.5 -25.5q45 0 94 78v287 l-47 -33q-61 -42 -76.5 -75.5t-15.5 -127.5zM836 678h178v57q0 45 -4 64t-15 35q-27 30 -69 30q-45 0 -72 -30q-18 -26 -18 -99v-57z" />
<glyph unicode="&#xe7;" horiz-adv-x="925" d="M68 317v404q0 92 16.5 147t56.5 93q99 96 332 96q119 0 208.5 -28.5t133.5 -80.5q34 -38 48 -89.5t14 -137.5v-43h-314v70q0 43 -3.5 62t-14.5 34q-27 30 -72 30q-51 0 -71.5 -28t-20.5 -98v-457q0 -70 20.5 -98.5t71.5 -28.5q44 0 72 31q11 15 14.5 34t3.5 62v137h314 v-111q0 -103 -22.5 -163t-74.5 -95q-49 -35 -106.5 -52t-145.5 -23l-34 -70h16q56 0 94.5 -39t38.5 -96q0 -70 -51.5 -117t-128.5 -47q-75 0 -154 39l23 100q70 -37 110 -37q25 0 39.5 13.5t14.5 38.5q0 22 -11 34.5t-30 12.5q-17 0 -54 -15l-53 49l62 134q-157 11 -246 75 q-52 35 -74 94.5t-22 163.5z" />
<glyph unicode="&#xe8;" horiz-adv-x="944" d="M68 358v332q0 112 21.5 176t74.5 107q107 84 307 84q206 0 307 -88q54 -44 75 -108.5t21 -182.5v-184h-493v-193q0 -72 20 -100.5t70 -28.5q49 0 72 33q16 27 16 96v90h315v-33q0 -116 -21 -180t-75 -108q-108 -88 -307 -88q-202 0 -307 88q-53 44 -74.5 109t-21.5 179z M176 1417h309l76 -266h-190zM381 678h178v57q0 46 -3.5 65t-14.5 34q-23 30 -70 30t-70 -30q-12 -15 -16 -34.5t-4 -64.5v-57z" />
<glyph unicode="&#xe9;" horiz-adv-x="944" d="M68 358v332q0 112 21.5 176t74.5 107q107 84 307 84q206 0 307 -88q54 -44 75 -108.5t21 -182.5v-184h-493v-193q0 -72 20 -100.5t70 -28.5q49 0 72 33q16 27 16 96v90h315v-33q0 -116 -21 -180t-75 -108q-108 -88 -307 -88q-202 0 -307 88q-53 44 -74.5 109t-21.5 179z M381 678h178v57q0 46 -3.5 65t-14.5 34q-23 30 -70 30t-70 -30q-12 -15 -16 -34.5t-4 -64.5v-57zM381 1151l76 266h309l-197 -266h-188z" />
<glyph unicode="&#xea;" horiz-adv-x="944" d="M68 358v332q0 112 21.5 176t74.5 107q107 84 307 84q206 0 307 -88q54 -44 75 -108.5t21 -182.5v-184h-493v-193q0 -72 20 -100.5t70 -28.5q49 0 72 33q16 27 16 96v90h315v-33q0 -116 -21 -180t-75 -108q-108 -88 -307 -88q-202 0 -307 88q-53 44 -74.5 109t-21.5 179z M188 1157l166 262h264l162 -262h-225l-66 117l-75 -117h-226zM381 678h178v57q0 46 -3.5 65t-14.5 34q-23 30 -70 30t-70 -30q-12 -15 -16 -34.5t-4 -64.5v-57z" />
<glyph unicode="&#xeb;" horiz-adv-x="944" d="M68 358v332q0 112 21.5 176t74.5 107q107 84 307 84q206 0 307 -88q54 -44 75 -108.5t21 -182.5v-184h-493v-193q0 -72 20 -100.5t70 -28.5q49 0 72 33q16 27 16 96v90h315v-33q0 -116 -21 -180t-75 -108q-108 -88 -307 -88q-202 0 -307 88q-53 44 -74.5 109t-21.5 179z M197 1157v266h239v-266h-239zM381 678h178v57q0 46 -3.5 65t-14.5 34q-23 30 -70 30t-70 -30q-12 -15 -16 -34.5t-4 -64.5v-57zM520 1157v266h240v-266h-240z" />
<glyph unicode="&#xec;" horiz-adv-x="485" d="M-45 1417h309l76 -266h-190zM86 0v1038h313v-1038h-313z" />
<glyph unicode="&#xed;" horiz-adv-x="485" d="M86 0v1038h313v-1038h-313zM168 1151l76 266h309l-197 -266h-188z" />
<glyph unicode="&#xee;" horiz-adv-x="485" d="M-39 1157l166 262h264l162 -262h-225l-66 117l-76 -117h-225zM86 0v1038h313v-1038h-313z" />
<glyph unicode="&#xef;" horiz-adv-x="485" d="M18 1157v266h209v-266h-209zM86 0v1038h313v-1038h-313zM285 1157v266h209v-266h-209z" />
<glyph unicode="&#xf0;" horiz-adv-x="931" d="M68 319v386q0 104 10 161t35 97q26 43 77.5 68.5t112.5 25.5q138 0 229 -119q-138 239 -292 375l106 108q210 -151 346 -307q101 -115 136.5 -197.5t35.5 -197.5v-400q0 -97 -18 -152t-62 -95q-99 -90 -317 -90q-194 0 -295 71q-57 38 -80.5 98.5t-23.5 167.5zM381 303 q0 -72 19.5 -100.5t66.5 -28.5q41 0 65 31q12 15 15.5 33t3.5 65v432q0 47 -3.5 65.5t-15.5 33.5q-20 30 -65 30q-47 0 -66.5 -28.5t-19.5 -100.5v-432z" />
<glyph unicode="&#xf1;" horiz-adv-x="962" d="M86 0v1038h313v-110q114 129 250 129q123 0 180 -88q28 -43 38 -101.5t10 -183.5v-684h-314v643q0 70 -3 91t-15 38q-19 31 -62 31q-41 0 -65 -31q-12 -17 -15.5 -40.5t-3.5 -88.5v-643h-313zM219 1270q67 82 109.5 110.5t95.5 28.5q27 0 53 -7.5t96 -35.5q39 -16 66 -16 q20 0 36.5 8.5t45.5 34.5l80 -84q-78 -82 -122 -110t-95 -28q-28 0 -57 10t-91 42q-25 14 -55 14q-23 0 -41 -10t-43 -37z" />
<glyph unicode="&#xf2;" horiz-adv-x="931" d="M68 319v400q0 107 23.5 167.5t80.5 98.5q103 72 295 72q235 0 330 -103q37 -38 52 -91t15 -144v-400q0 -97 -18 -152t-62 -95q-99 -90 -317 -90q-194 0 -295 71q-57 38 -80.5 98.5t-23.5 167.5zM172 1417h309l76 -266h-190zM381 303q0 -72 19.5 -101.5t66.5 -29.5 q41 0 65 31q12 15 15.5 33.5t3.5 66.5v432q0 48 -3.5 67t-15.5 34q-23 30 -65 30q-47 0 -66.5 -29.5t-19.5 -101.5v-432z" />
<glyph unicode="&#xf3;" horiz-adv-x="931" d="M68 319v400q0 107 23.5 167.5t80.5 98.5q103 72 295 72q235 0 330 -103q37 -38 52 -91t15 -144v-400q0 -97 -18 -152t-62 -95q-99 -90 -317 -90q-194 0 -295 71q-57 38 -80.5 98.5t-23.5 167.5zM381 303q0 -72 19.5 -101.5t66.5 -29.5q41 0 65 31q12 15 15.5 33.5 t3.5 66.5v432q0 48 -3.5 67t-15.5 34q-23 30 -65 30q-47 0 -66.5 -29.5t-19.5 -101.5v-432zM383 1151l76 266h309l-197 -266h-188z" />
<glyph unicode="&#xf4;" horiz-adv-x="931" d="M68 319v400q0 107 23.5 167.5t80.5 98.5q103 72 295 72q235 0 330 -103q37 -38 52 -91t15 -144v-400q0 -97 -18 -152t-62 -95q-99 -90 -317 -90q-194 0 -295 71q-57 38 -80.5 98.5t-23.5 167.5zM176 1157l166 262h264l162 -262h-225l-66 117l-76 -117h-225zM381 303 q0 -72 19.5 -101.5t66.5 -29.5q41 0 65 31q12 15 15.5 33.5t3.5 66.5v432q0 48 -3.5 67t-15.5 34q-23 30 -65 30q-47 0 -66.5 -29.5t-19.5 -101.5v-432z" />
<glyph unicode="&#xf5;" horiz-adv-x="931" d="M68 319v400q0 107 23.5 167.5t80.5 98.5q103 72 295 72q235 0 330 -103q37 -38 52 -91t15 -144v-400q0 -97 -18 -152t-62 -95q-99 -90 -317 -90q-194 0 -295 71q-57 38 -80.5 98.5t-23.5 167.5zM203 1270q67 82 109.5 110.5t95.5 28.5q27 0 53 -7.5t96 -35.5 q39 -16 66 -16q20 0 36.5 8.5t45.5 34.5l79 -84q-78 -82 -122 -110t-95 -28q-28 0 -56 10t-91 42q-25 14 -55 14q-23 0 -41 -10t-43 -37zM381 303q0 -72 19.5 -101.5t66.5 -29.5q41 0 65 31q12 15 15.5 33.5t3.5 66.5v432q0 48 -3.5 67t-15.5 34q-23 30 -65 30 q-47 0 -66.5 -29.5t-19.5 -101.5v-432z" />
<glyph unicode="&#xf6;" horiz-adv-x="931" d="M68 319v400q0 107 23.5 167.5t80.5 98.5q103 72 295 72q235 0 330 -103q37 -38 52 -91t15 -144v-400q0 -97 -18 -152t-62 -95q-99 -90 -317 -90q-194 0 -295 71q-57 38 -80.5 98.5t-23.5 167.5zM190 1157v266h240v-266h-240zM381 303q0 -72 19.5 -101.5t66.5 -29.5 q41 0 65 31q12 15 15.5 33.5t3.5 66.5v432q0 48 -3.5 67t-15.5 34q-23 30 -65 30q-47 0 -66.5 -29.5t-19.5 -101.5v-432zM514 1157v266h240v-266h-240z" />
<glyph unicode="&#xf7;" d="M82 590v190h831v-190h-831zM379 236v264h239v-264h-239zM379 872v265h239v-265h-239z" />
<glyph unicode="&#xf8;" horiz-adv-x="931" d="M68 319v400q0 107 23.5 167.5t80.5 98.5q103 72 293 72q87 0 178 -21l76 154l112 -53l-71 -152q60 -42 82 -100t22 -166v-400q0 -97 -18 -152t-62 -95q-99 -90 -315 -90q-94 0 -178 20l-78 -158l-113 54l74 155q-60 40 -83 98.5t-23 167.5zM381 424l166 385 q-20 57 -80 57q-47 0 -66.5 -29.5t-19.5 -101.5v-311zM385 231q21 -59 82 -59q41 0 65 31q12 15 15.5 33.5t3.5 66.5v311z" />
<glyph unicode="&#xf9;" horiz-adv-x="964" d="M86 313v725h313v-682q0 -72 19 -100.5t65 -28.5q42 0 66 31q10 15 13 33.5t3 64.5v682h314v-1038h-314v106q-66 -67 -123.5 -95.5t-126.5 -28.5q-118 0 -178 81q-29 41 -40 93.5t-11 156.5zM195 1417h309l76 -266h-191z" />
<glyph unicode="&#xfa;" horiz-adv-x="964" d="M86 313v725h313v-682q0 -72 19 -100.5t65 -28.5q42 0 66 31q10 15 13 33.5t3 64.5v682h314v-1038h-314v106q-66 -67 -123.5 -95.5t-126.5 -28.5q-118 0 -178 81q-29 41 -40 93.5t-11 156.5zM408 1151l75 266h310l-197 -266h-188z" />
<glyph unicode="&#xfb;" horiz-adv-x="964" d="M86 313v725h313v-682q0 -72 19 -100.5t65 -28.5q42 0 66 31q10 15 13 33.5t3 64.5v682h314v-1038h-314v106q-66 -67 -123.5 -95.5t-126.5 -28.5q-118 0 -178 81q-29 41 -40 93.5t-11 156.5zM201 1157l166 262h264l162 -262h-226l-65 117l-76 -117h-225z" />
<glyph unicode="&#xfc;" horiz-adv-x="964" d="M86 313v725h313v-682q0 -72 19 -100.5t65 -28.5q42 0 66 31q10 15 13 33.5t3 64.5v682h314v-1038h-314v106q-66 -67 -123.5 -95.5t-126.5 -28.5q-118 0 -178 81q-29 41 -40 93.5t-11 156.5zM209 1157v266h240v-266h-240zM532 1157v266h240v-266h-240z" />
<glyph unicode="&#xfd;" horiz-adv-x="862" d="M10 1038h328l65 -557q19 -172 25 -305q10 172 29 305l80 557h315l-244 -1099q-11 -51 -21.5 -83t-26.5 -58.5t-34 -40t-49 -23t-67 -12.5t-91 -3h-219v226h58q86 0 86 67q0 16 -11 64zM356 1151l76 266h309l-196 -266h-189z" />
<glyph unicode="&#xfe;" horiz-adv-x="933" d="M86 -281v1647h313v-416q56 57 111 82t125 25q121 0 178 -82q31 -43 42 -103t11 -182v-321q0 -121 -7.5 -179t-29.5 -102q-25 -51 -75.5 -78.5t-118.5 -27.5q-73 0 -128 29.5t-108 97.5v-390h-313zM399 330q0 -67 17 -94t59 -27q43 0 60.5 27t17.5 94v379q0 68 -17 95 t-59 27q-43 0 -60.5 -27t-17.5 -95v-379z" />
<glyph unicode="&#xff;" horiz-adv-x="862" d="M10 1038h328l65 -557q19 -172 25 -305q10 172 29 305l80 557h315l-244 -1099q-11 -51 -21.5 -83t-26.5 -58.5t-34 -40t-49 -23t-67 -12.5t-91 -3h-219v226h58q86 0 86 67q0 16 -11 64zM158 1157v266h239v-266h-239zM481 1157v266h240v-266h-240z" />
<glyph unicode="&#x152;" horiz-adv-x="1382" d="M100 381v539q0 205 64 307q46 76 130.5 117.5t194.5 41.5q66 0 187 -16q46 -4 61 -4h553v-250h-352v-297h336v-250h-336v-319h385v-250h-608q-31 0 -92 -10q-48 -10 -136 -10q-118 0 -212 47t-134 127q-16 34 -28.5 101.5t-12.5 125.5zM428 340q0 -59 23.5 -92t66.5 -33 q24 0 46.5 11t31.5 28q14 20 14 86v674q0 75 -20.5 106t-69.5 31t-70.5 -32.5t-21.5 -104.5v-674z" />
<glyph unicode="&#x153;" horiz-adv-x="1425" d="M68 317v402q0 107 23.5 167.5t80.5 98.5q103 72 293 72q141 0 246 -45q102 45 241 45q207 0 308 -88q54 -44 75 -108.5t21 -182.5v-184h-492v-193q0 -72 19.5 -100.5t68.5 -28.5t72 33q10 15 13 33.5t3 62.5v90h316v-33q0 -116 -21 -180t-75 -108q-108 -88 -308 -88 q-134 0 -241 45q-99 -45 -246 -45q-187 0 -293 71q-57 38 -80.5 98t-23.5 166zM381 301q0 -72 19 -100.5t65 -28.5q44 0 65 31q12 15 15.5 33.5t3.5 64.5v434q0 46 -3.5 65t-15.5 34q-20 30 -65 30q-46 0 -65 -28.5t-19 -100.5v-434zM864 678h176v57q0 48 -3 66t-15 33 q-23 30 -70 30q-46 0 -69 -30q-12 -15 -15.5 -34t-3.5 -65v-57z" />
<glyph unicode="&#x178;" horiz-adv-x="917" d="M-2 1366h336l123 -510l121 510h344l-299 -856v-510h-328v510zM184 1458v268h240v-268h-240zM508 1458v268h240v-268h-240z" />
<glyph unicode="&#x2c6;" horiz-adv-x="1024" d="M215 1157l166 262h264l162 -262h-225l-66 117l-76 -117h-225z" />
<glyph unicode="&#x2dc;" horiz-adv-x="1024" d="M221 1270q67 82 109.5 110.5t95.5 28.5q27 0 53 -7.5t96 -35.5q39 -16 66 -16q20 0 36.5 8.5t45.5 34.5l80 -84q-78 -82 -122 -110t-95 -28q-28 0 -57 10t-91 42q-25 14 -55 14q-23 0 -41 -10t-43 -37z" />
<glyph unicode="&#x2000;" horiz-adv-x="916" />
<glyph unicode="&#x2001;" horiz-adv-x="1833" />
<glyph unicode="&#x2002;" horiz-adv-x="916" />
<glyph unicode="&#x2003;" horiz-adv-x="1833" />
<glyph unicode="&#x2004;" horiz-adv-x="611" />
<glyph unicode="&#x2005;" horiz-adv-x="458" />
<glyph unicode="&#x2006;" horiz-adv-x="305" />
<glyph unicode="&#x2007;" horiz-adv-x="305" />
<glyph unicode="&#x2008;" horiz-adv-x="229" />
<glyph unicode="&#x2009;" horiz-adv-x="366" />
<glyph unicode="&#x200a;" horiz-adv-x="101" />
<glyph unicode="&#x2010;" horiz-adv-x="618" d="M0 420v252h618v-252h-618z" />
<glyph unicode="&#x2011;" horiz-adv-x="618" d="M0 420v252h618v-252h-618z" />
<glyph unicode="&#x2012;" horiz-adv-x="618" d="M0 420v252h618v-252h-618z" />
<glyph unicode="&#x2013;" d="M82 420v252h831v-252h-831z" />
<glyph unicode="&#x2014;" horiz-adv-x="1280" d="M0 420v252h1280v-252h-1280z" />
<glyph unicode="&#x2018;" horiz-adv-x="415" d="M74 815v336l266 235v-165l-119 -109h119v-297h-266z" />
<glyph unicode="&#x2019;" horiz-adv-x="403" d="M68 795v166l118 108h-118v297h266v-336z" />
<glyph unicode="&#x201a;" horiz-adv-x="403" d="M68 0v297h266v-336l-266 -235v165l118 109h-118z" />
<glyph unicode="&#x201c;" horiz-adv-x="739" d="M74 815v336l266 235v-165l-119 -109h119v-297h-266zM399 815v336l267 235v-165l-119 -109h119v-297h-267z" />
<glyph unicode="&#x201d;" horiz-adv-x="739" d="M74 795v166l119 108h-119v297h266v-336zM399 795v166l119 108h-119v297h267v-336z" />
<glyph unicode="&#x201e;" horiz-adv-x="739" d="M74 0v297h266v-336l-266 -235v165l119 109h-119zM399 0v297h267v-336l-267 -235v165l119 109h-119z" />
<glyph unicode="&#x2022;" horiz-adv-x="1366" d="M401 692q0 120 83.5 202.5t205.5 82.5q114 0 196.5 -83.5t82.5 -199.5q0 -118 -83 -201t-200 -83t-201 82.5t-84 199.5z" />
<glyph unicode="&#x2026;" horiz-adv-x="1245" d="M74 0v297h266v-297h-266zM489 0v297h267v-297h-267zM903 0v297h266v-297h-266z" />
<glyph unicode="&#x202f;" horiz-adv-x="366" />
<glyph unicode="&#x2039;" horiz-adv-x="479" d="M47 547l158 233h215l-156 -233l156 -234h-215z" />
<glyph unicode="&#x203a;" horiz-adv-x="479" d="M47 313l156 234l-156 233h215l158 -233l-158 -234h-215z" />
<glyph unicode="&#x205f;" horiz-adv-x="458" />
<glyph unicode="&#x20ac;" horiz-adv-x="1202" d="M82 526l29 117h122v64h-151l29 118h122v121q0 134 24 210.5t81 127.5q114 102 340 102q225 0 338 -94q57 -47 80.5 -119t23.5 -200v-96h-327v124q0 77 -28 112.5t-89 35.5q-60 0 -87.5 -35.5t-27.5 -112.5v-176h191l-29 -116h-162v-66h146l-29 -117h-117v-161 q0 -78 27.5 -114t87.5 -36q61 0 89 36t28 114v186h327v-131q0 -133 -23.5 -209t-80.5 -129q-114 -102 -338 -102q-226 0 -340 102q-57 53 -81 129t-24 209v106h-151z" />
<glyph unicode="&#x2122;" horiz-adv-x="1452" d="M18 1212v156h549v-156h-168v-624h-213v624h-168zM623 588v780h307l67 -412l70 412h303v-780h-188l8 518l-103 -518h-184l-102 518l8 -518h-186z" />
<glyph unicode="&#xe000;" horiz-adv-x="1034" d="M0 0v1034h1034v-1034h-1034z" />
</font>
</defs>
</svg>
